M48
INCH,TZ
T1C0.0118
T2C0.0236
T3C0.0287
T4C0.0295
T5C0.0315
T6C0.0354
T7C0.0394
T8C0.0551
T9C0.0654
%
G90
G05
T1
X46654Y-46654
X51181Y-41929
X51378Y-44685
X51378Y-51969
X62205Y-32677
X63189Y-32677
X66535Y-24232
X67913Y-42520
X69291Y-26181
X71004Y-30118
X72638Y-40945
X72776Y-34843
T2
X45669Y-43898
X46260Y-43898
T3
X65957Y-33114
X65957Y-34114
X65957Y-35114
X65957Y-36114
X65957Y-37114
X65957Y-38114
X65957Y-39114
X65957Y-40114
X69083Y-33114
X69083Y-34114
X69083Y-35114
X69083Y-36114
X69083Y-37114
X69083Y-38114
X69083Y-39114
X69083Y-40114
T4
X62189Y-44094
X62689Y-44094
X63189Y-44094
T5
X40551Y-52165
X41758Y-53178
X42361Y-53684
X42964Y-54190
X43504Y-45819
X43504Y-51819
X46348Y-29046
X50197Y-40898
X50197Y-46898
X50591Y-24803
X52756Y-43307
X52756Y-46307
X53756Y-43307
X53756Y-46307
X54756Y-43307
X54756Y-46307
X55756Y-43307
X55756Y-46307
X58312Y-24847
X58465Y-40945
X58465Y-46945
X62554Y-29090
X65157Y-45819
X65157Y-51819
T6
X35811Y-39370
X36205Y-34449
X36811Y-39370
X36900Y-44094
X37205Y-34449
X37780Y-29921
X37900Y-44094
X38780Y-29921
X39065Y-48425
X40065Y-48425
X40354Y-26575
X41354Y-26575
X57465Y-36417
X58465Y-36417
X66520Y-25984
X67520Y-25984
X68094Y-48228
X69094Y-48228
X69276Y-29921
X70260Y-44094
X70276Y-29921
X70955Y-34449
X71260Y-39173
X71260Y-44094
X71955Y-34449
X72260Y-39173
T7
X61614Y-51378
X61614Y-55378
T8
X49409Y-38386
X50394Y-34449
X51378Y-38386
T9
X39903Y-51621
X43612Y-54734
M30
