G04 #@! TF.GenerationSoftware,KiCad,Pcbnew,8.0.5*
G04 #@! TF.CreationDate,2024-10-11T09:12:05-05:00*
G04 #@! TF.ProjectId,bsidesdfw badge 2024,62736964-6573-4646-9677-206261646765,rev?*
G04 #@! TF.SameCoordinates,Original*
G04 #@! TF.FileFunction,Soldermask,Bot*
G04 #@! TF.FilePolarity,Negative*
%FSLAX46Y46*%
G04 Gerber Fmt 4.6, Leading zero omitted, Abs format (unit mm)*
G04 Created by KiCad (PCBNEW 8.0.5) date 2024-10-11 09:12:05*
%MOMM*%
%LPD*%
G01*
G04 APERTURE LIST*
G04 Aperture macros list*
%AMHorizOval*
0 Thick line with rounded ends*
0 $1 width*
0 $2 $3 position (X,Y) of the first rounded end (center of the circle)*
0 $4 $5 position (X,Y) of the second rounded end (center of the circle)*
0 Add line between two ends*
20,1,$1,$2,$3,$4,$5,0*
0 Add two circle primitives to create the rounded ends*
1,1,$1,$2,$3*
1,1,$1,$4,$5*%
%AMRotRect*
0 Rectangle, with rotation*
0 The origin of the aperture is its center*
0 $1 length*
0 $2 width*
0 $3 Rotation angle, in degrees counterclockwise*
0 Add horizontal line*
21,1,$1,$2,0,0,$3*%
G04 Aperture macros list end*
%ADD10C,2.400000*%
%ADD11RotRect,1.300000X1.300000X320.000000*%
%ADD12C,1.300000*%
%ADD13C,2.490000*%
%ADD14R,1.600000X1.600000*%
%ADD15O,1.600000X1.600000*%
%ADD16R,1.800000X1.800000*%
%ADD17C,1.800000*%
%ADD18R,3.860000X5.000000*%
%ADD19R,3.960000X5.000000*%
%ADD20R,1.130000X1.130000*%
%ADD21C,1.130000*%
%ADD22C,1.600000*%
%ADD23HorizOval,1.600000X0.000000X0.000000X0.000000X0.000000X0*%
%ADD24R,1.050000X1.500000*%
%ADD25O,1.050000X1.500000*%
%ADD26HorizOval,1.600000X0.000000X0.000000X0.000000X0.000000X0*%
%ADD27R,1.200000X1.200000*%
%ADD28C,1.200000*%
%ADD29R,2.000000X2.000000*%
%ADD30O,2.000000X2.000000*%
G04 APERTURE END LIST*
D10*
G04 #@! TO.C,R2*
X125500000Y-97500000D03*
X128000000Y-87500000D03*
X130500000Y-97500000D03*
G04 #@! TD*
D11*
G04 #@! TO.C,SW1*
X103000000Y-132500000D03*
D12*
X106064178Y-135071153D03*
X107596267Y-136356726D03*
X109128356Y-137642300D03*
D13*
X101353004Y-131118007D03*
X110775350Y-139024295D03*
G04 #@! TD*
D14*
G04 #@! TO.C,U1*
X134000000Y-110000000D03*
D15*
X136540000Y-110000000D03*
X139080000Y-110000000D03*
X141620000Y-110000000D03*
X141620000Y-117620000D03*
X139080000Y-117620000D03*
X136540000Y-117620000D03*
X134000000Y-117620000D03*
G04 #@! TD*
D16*
G04 #@! TO.C,D7*
X172960000Y-122500000D03*
D17*
X175500000Y-122500000D03*
G04 #@! TD*
D18*
G04 #@! TO.C,BT1*
X149050000Y-133380000D03*
D19*
X127240000Y-133380000D03*
G04 #@! TD*
D20*
G04 #@! TO.C,U2*
X167530000Y-101890000D03*
D21*
X167530000Y-99350000D03*
X167530000Y-96810000D03*
X167530000Y-94270000D03*
X167530000Y-91730000D03*
X167530000Y-89190000D03*
X167530000Y-86650000D03*
X167530000Y-84110000D03*
X175470000Y-84110000D03*
X175470000Y-86650000D03*
X175470000Y-89190000D03*
X175470000Y-91730000D03*
X175470000Y-94270000D03*
X175470000Y-96810000D03*
X175470000Y-99350000D03*
X175470000Y-101890000D03*
G04 #@! TD*
D16*
G04 #@! TO.C,D3*
X90960000Y-100000000D03*
D17*
X93500000Y-100000000D03*
G04 #@! TD*
D16*
G04 #@! TO.C,D10*
X180225000Y-87500000D03*
D17*
X182765000Y-87500000D03*
G04 #@! TD*
D22*
G04 #@! TO.C,R7*
X128500000Y-63000000D03*
D23*
X117723693Y-73776307D03*
G04 #@! TD*
D22*
G04 #@! TO.C,R6*
X110500000Y-131620000D03*
D15*
X110500000Y-116380000D03*
G04 #@! TD*
D16*
G04 #@! TO.C,D5*
X95960000Y-76000000D03*
D17*
X98500000Y-76000000D03*
G04 #@! TD*
D16*
G04 #@! TO.C,D11*
X175960000Y-76000000D03*
D17*
X178500000Y-76000000D03*
G04 #@! TD*
D24*
G04 #@! TO.C,Q1*
X160500000Y-112000000D03*
D25*
X159230000Y-112000000D03*
X157960000Y-112000000D03*
G04 #@! TD*
D16*
G04 #@! TO.C,D9*
X181000000Y-99500000D03*
D17*
X183540000Y-99500000D03*
G04 #@! TD*
D16*
G04 #@! TO.C,D6*
X102500000Y-67500000D03*
D17*
X105040000Y-67500000D03*
G04 #@! TD*
D22*
G04 #@! TO.C,R1*
X127500000Y-119120000D03*
D15*
X127500000Y-103880000D03*
G04 #@! TD*
D16*
G04 #@! TO.C,D12*
X168960000Y-66000000D03*
D17*
X171500000Y-66000000D03*
G04 #@! TD*
D22*
G04 #@! TO.C,R3*
X148111847Y-63111847D03*
D26*
X158888154Y-73888154D03*
G04 #@! TD*
D16*
G04 #@! TO.C,D2*
X93725000Y-112000000D03*
D17*
X96265000Y-112000000D03*
G04 #@! TD*
D22*
G04 #@! TO.C,R4*
X148500000Y-104000000D03*
D15*
X148500000Y-119240000D03*
G04 #@! TD*
D16*
G04 #@! TO.C,D8*
X178460000Y-112000000D03*
D17*
X181000000Y-112000000D03*
G04 #@! TD*
D22*
G04 #@! TO.C,R5*
X165500000Y-131620000D03*
D15*
X165500000Y-116380000D03*
G04 #@! TD*
D16*
G04 #@! TO.C,D4*
X91960000Y-87500000D03*
D17*
X94500000Y-87500000D03*
G04 #@! TD*
D27*
G04 #@! TO.C,C1*
X117500000Y-111500000D03*
D28*
X116000000Y-111500000D03*
G04 #@! TD*
D29*
G04 #@! TO.C,D14*
X156500000Y-130500000D03*
D30*
X156500000Y-140660000D03*
G04 #@! TD*
D16*
G04 #@! TO.C,D1*
X99225000Y-123000000D03*
D17*
X101765000Y-123000000D03*
G04 #@! TD*
D16*
G04 #@! TO.C,D13*
X145960000Y-92500000D03*
D17*
X148500000Y-92500000D03*
G04 #@! TD*
M02*
