G04 #@! TF.GenerationSoftware,KiCad,Pcbnew,8.0.5*
G04 #@! TF.CreationDate,2024-10-11T09:12:05-05:00*
G04 #@! TF.ProjectId,bsidesdfw badge 2024,62736964-6573-4646-9677-206261646765,rev?*
G04 #@! TF.SameCoordinates,Original*
G04 #@! TF.FileFunction,Legend,Top*
G04 #@! TF.FilePolarity,Positive*
%FSLAX46Y46*%
G04 Gerber Fmt 4.6, Leading zero omitted, Abs format (unit mm)*
G04 Created by KiCad (PCBNEW 8.0.5) date 2024-10-11 09:12:05*
%MOMM*%
%LPD*%
G01*
G04 APERTURE LIST*
%ADD10C,0.100000*%
%ADD11C,0.254000*%
%ADD12C,0.200000*%
%ADD13C,0.000000*%
G04 APERTURE END LIST*
D10*
X127833333Y-92457419D02*
X127500000Y-91981228D01*
X127261905Y-92457419D02*
X127261905Y-91457419D01*
X127261905Y-91457419D02*
X127642857Y-91457419D01*
X127642857Y-91457419D02*
X127738095Y-91505038D01*
X127738095Y-91505038D02*
X127785714Y-91552657D01*
X127785714Y-91552657D02*
X127833333Y-91647895D01*
X127833333Y-91647895D02*
X127833333Y-91790752D01*
X127833333Y-91790752D02*
X127785714Y-91885990D01*
X127785714Y-91885990D02*
X127738095Y-91933609D01*
X127738095Y-91933609D02*
X127642857Y-91981228D01*
X127642857Y-91981228D02*
X127261905Y-91981228D01*
X128214286Y-91552657D02*
X128261905Y-91505038D01*
X128261905Y-91505038D02*
X128357143Y-91457419D01*
X128357143Y-91457419D02*
X128595238Y-91457419D01*
X128595238Y-91457419D02*
X128690476Y-91505038D01*
X128690476Y-91505038D02*
X128738095Y-91552657D01*
X128738095Y-91552657D02*
X128785714Y-91647895D01*
X128785714Y-91647895D02*
X128785714Y-91743133D01*
X128785714Y-91743133D02*
X128738095Y-91885990D01*
X128738095Y-91885990D02*
X128166667Y-92457419D01*
X128166667Y-92457419D02*
X128785714Y-92457419D01*
D11*
X103151143Y-137805172D02*
X103251252Y-137968119D01*
X103251252Y-137968119D02*
X103482889Y-138162486D01*
X103482889Y-138162486D02*
X103614417Y-138193905D01*
X103614417Y-138193905D02*
X103699618Y-138186451D01*
X103699618Y-138186451D02*
X103823692Y-138132669D01*
X103823692Y-138132669D02*
X103901439Y-138040015D01*
X103901439Y-138040015D02*
X103932858Y-137908486D01*
X103932858Y-137908486D02*
X103925404Y-137823286D01*
X103925404Y-137823286D02*
X103871622Y-137699211D01*
X103871622Y-137699211D02*
X103725186Y-137497391D01*
X103725186Y-137497391D02*
X103671404Y-137373316D01*
X103671404Y-137373316D02*
X103663950Y-137288116D01*
X103663950Y-137288116D02*
X103695370Y-137156587D01*
X103695370Y-137156587D02*
X103773116Y-137063932D01*
X103773116Y-137063932D02*
X103897190Y-137010151D01*
X103897190Y-137010151D02*
X103982391Y-137002697D01*
X103982391Y-137002697D02*
X104113919Y-137034116D01*
X104113919Y-137034116D02*
X104345557Y-137228483D01*
X104345557Y-137228483D02*
X104445666Y-137391430D01*
X104808831Y-137617216D02*
X104224128Y-138784460D01*
X104224128Y-138784460D02*
X104992538Y-138245041D01*
X104992538Y-138245041D02*
X104594748Y-139095446D01*
X104594748Y-139095446D02*
X105642725Y-138316937D01*
X105706607Y-140028407D02*
X105150678Y-139561927D01*
X105428642Y-139795167D02*
X106244983Y-138822290D01*
X106244983Y-138822290D02*
X106035708Y-138883526D01*
X106035708Y-138883526D02*
X105865306Y-138898434D01*
X105865306Y-138898434D02*
X105733778Y-138867015D01*
D10*
G04 #@! TO.C,R2*
X130121320Y-92500000D02*
G75*
G02*
X125878680Y-92500000I-2121320J0D01*
G01*
X125878680Y-92500000D02*
G75*
G02*
X130121320Y-92500000I2121320J0D01*
G01*
X133220153Y-92500000D02*
G75*
G02*
X122779847Y-92500000I-5220153J0D01*
G01*
X122779847Y-92500000D02*
G75*
G02*
X133220153Y-92500000I5220153J0D01*
G01*
D12*
G04 #@! TO.C,SW1*
X99748623Y-137930564D02*
X100208248Y-138316236D01*
X99753522Y-132713049D02*
X109482288Y-140876452D01*
X100139197Y-132253423D02*
X99753522Y-132713049D01*
X100208248Y-138316236D02*
X100707503Y-138343539D01*
X100707503Y-138343539D02*
X100821084Y-138830468D01*
X100821084Y-138830468D02*
X101280711Y-139216141D01*
X101280711Y-139216141D02*
X103851861Y-136151963D01*
X102319771Y-134866386D02*
X99748623Y-137930564D01*
X102646067Y-129265848D02*
X102324674Y-129648871D01*
D10*
X104735528Y-130431680D02*
X104735528Y-130431680D01*
X104799805Y-130355077D02*
X104799805Y-130355077D01*
D12*
X109482288Y-140876452D02*
X109867960Y-140416825D01*
X112053439Y-137812275D02*
X112374831Y-137429252D01*
X112374831Y-137429252D02*
X102646067Y-129265848D01*
D10*
X104735528Y-130431680D02*
G75*
G02*
X104799805Y-130355077I32139J38301D01*
G01*
X104799805Y-130355077D02*
G75*
G02*
X104735528Y-130431680I-32140J-38300D01*
G01*
D13*
G04 #@! TO.C,G\u002A\u002A\u002A*
G36*
X89917333Y-90007667D02*
G01*
X89875000Y-90050000D01*
X89832666Y-90007667D01*
X89875000Y-89965334D01*
X89917333Y-90007667D01*
G37*
G36*
X98638000Y-82980334D02*
G01*
X98595666Y-83022667D01*
X98553333Y-82980334D01*
X98595666Y-82938000D01*
X98638000Y-82980334D01*
G37*
G36*
X103125333Y-89076334D02*
G01*
X103083000Y-89118667D01*
X103040666Y-89076334D01*
X103083000Y-89034000D01*
X103125333Y-89076334D01*
G37*
G36*
X103464000Y-89161000D02*
G01*
X103421666Y-89203334D01*
X103379333Y-89161000D01*
X103421666Y-89118667D01*
X103464000Y-89161000D01*
G37*
G36*
X114894000Y-100337000D02*
G01*
X114851666Y-100379334D01*
X114809333Y-100337000D01*
X114851666Y-100294667D01*
X114894000Y-100337000D01*
G37*
G36*
X115232666Y-100252334D02*
G01*
X115190333Y-100294667D01*
X115148000Y-100252334D01*
X115190333Y-100210000D01*
X115232666Y-100252334D01*
G37*
G36*
X164000666Y-109227000D02*
G01*
X163958333Y-109269334D01*
X163916000Y-109227000D01*
X163958333Y-109184667D01*
X164000666Y-109227000D01*
G37*
G36*
X164170000Y-109311667D02*
G01*
X164127666Y-109354000D01*
X164085333Y-109311667D01*
X164127666Y-109269334D01*
X164170000Y-109311667D01*
G37*
G36*
X170350666Y-92124334D02*
G01*
X170308333Y-92166667D01*
X170266000Y-92124334D01*
X170308333Y-92082000D01*
X170350666Y-92124334D01*
G37*
G36*
X171790000Y-102961667D02*
G01*
X171747666Y-103004000D01*
X171705333Y-102961667D01*
X171747666Y-102919334D01*
X171790000Y-102961667D01*
G37*
G36*
X172128666Y-103046334D02*
G01*
X172086333Y-103088667D01*
X172044000Y-103046334D01*
X172086333Y-103004000D01*
X172128666Y-103046334D01*
G37*
G36*
X172975333Y-84081000D02*
G01*
X172933000Y-84123334D01*
X172890666Y-84081000D01*
X172933000Y-84038667D01*
X172975333Y-84081000D01*
G37*
G36*
X173229333Y-83996334D02*
G01*
X173187000Y-84038667D01*
X173144666Y-83996334D01*
X173187000Y-83954000D01*
X173229333Y-83996334D01*
G37*
G36*
X175176666Y-83234334D02*
G01*
X175134333Y-83276667D01*
X175092000Y-83234334D01*
X175134333Y-83192000D01*
X175176666Y-83234334D01*
G37*
G36*
X175600000Y-83065000D02*
G01*
X175557666Y-83107334D01*
X175515333Y-83065000D01*
X175557666Y-83022667D01*
X175600000Y-83065000D01*
G37*
G36*
X177124000Y-87552334D02*
G01*
X177081666Y-87594667D01*
X177039333Y-87552334D01*
X177081666Y-87510000D01*
X177124000Y-87552334D01*
G37*
G36*
X177547333Y-104316334D02*
G01*
X177505000Y-104358667D01*
X177462666Y-104316334D01*
X177505000Y-104274000D01*
X177547333Y-104316334D01*
G37*
G36*
X88583833Y-89739927D02*
G01*
X88594469Y-89770830D01*
X88478000Y-89782632D01*
X88357804Y-89769326D01*
X88372166Y-89739927D01*
X88545508Y-89728744D01*
X88583833Y-89739927D01*
G37*
G36*
X89047736Y-89829514D02*
G01*
X89022485Y-89867996D01*
X88936611Y-89873983D01*
X88846268Y-89853305D01*
X88885458Y-89822830D01*
X89017782Y-89812736D01*
X89047736Y-89829514D01*
G37*
G36*
X89555736Y-89914181D02*
G01*
X89530485Y-89952663D01*
X89444611Y-89958649D01*
X89354268Y-89937972D01*
X89393458Y-89907497D01*
X89525782Y-89897403D01*
X89555736Y-89914181D01*
G37*
G36*
X93275777Y-105826222D02*
G01*
X93264155Y-105876557D01*
X93219333Y-105882667D01*
X93149643Y-105851689D01*
X93162888Y-105826222D01*
X93263368Y-105816089D01*
X93275777Y-105826222D01*
G37*
G36*
X93614444Y-105741556D02*
G01*
X93602822Y-105791890D01*
X93558000Y-105798000D01*
X93488309Y-105767022D01*
X93501555Y-105741556D01*
X93602035Y-105731423D01*
X93614444Y-105741556D01*
G37*
G36*
X94043069Y-105662181D02*
G01*
X94017818Y-105700663D01*
X93931944Y-105706649D01*
X93841602Y-105685972D01*
X93880791Y-105655497D01*
X94013115Y-105645403D01*
X94043069Y-105662181D01*
G37*
G36*
X94376444Y-105572222D02*
G01*
X94364822Y-105622557D01*
X94320000Y-105628667D01*
X94250309Y-105597689D01*
X94263555Y-105572222D01*
X94364035Y-105562089D01*
X94376444Y-105572222D01*
G37*
G36*
X94799777Y-105487556D02*
G01*
X94788155Y-105537890D01*
X94743333Y-105544000D01*
X94673643Y-105513022D01*
X94686888Y-105487556D01*
X94787368Y-105477423D01*
X94799777Y-105487556D01*
G37*
G36*
X95223111Y-105402889D02*
G01*
X95211488Y-105453223D01*
X95166666Y-105459334D01*
X95096976Y-105428355D01*
X95110222Y-105402889D01*
X95210701Y-105392756D01*
X95223111Y-105402889D01*
G37*
G36*
X98101777Y-87876889D02*
G01*
X98090155Y-87927223D01*
X98045333Y-87933334D01*
X97975643Y-87902355D01*
X97988888Y-87876889D01*
X98089368Y-87866756D01*
X98101777Y-87876889D01*
G37*
G36*
X98440444Y-104640889D02*
G01*
X98428822Y-104691223D01*
X98384000Y-104697334D01*
X98314309Y-104666355D01*
X98327555Y-104640889D01*
X98428035Y-104630756D01*
X98440444Y-104640889D01*
G37*
G36*
X101324402Y-100751514D02*
G01*
X101299151Y-100789996D01*
X101213277Y-100795983D01*
X101122935Y-100775305D01*
X101162125Y-100744830D01*
X101294448Y-100734736D01*
X101324402Y-100751514D01*
G37*
G36*
X101578402Y-91861514D02*
G01*
X101553151Y-91899996D01*
X101467277Y-91905983D01*
X101376935Y-91885305D01*
X101416125Y-91854830D01*
X101548448Y-91844736D01*
X101578402Y-91861514D01*
G37*
G36*
X101791833Y-100661927D02*
G01*
X101802469Y-100692830D01*
X101686000Y-100704632D01*
X101565804Y-100691326D01*
X101580166Y-100661927D01*
X101753508Y-100650744D01*
X101791833Y-100661927D01*
G37*
G36*
X102045833Y-91941260D02*
G01*
X102056469Y-91972163D01*
X101940000Y-91983965D01*
X101819804Y-91970660D01*
X101834166Y-91941260D01*
X102007508Y-91930078D01*
X102045833Y-91941260D01*
G37*
G36*
X103774444Y-89231556D02*
G01*
X103762822Y-89281890D01*
X103718000Y-89288000D01*
X103648309Y-89257022D01*
X103661555Y-89231556D01*
X103762035Y-89221423D01*
X103774444Y-89231556D01*
G37*
G36*
X104113111Y-89316222D02*
G01*
X104101488Y-89366557D01*
X104056666Y-89372667D01*
X103986976Y-89341689D01*
X104000222Y-89316222D01*
X104100701Y-89306089D01*
X104113111Y-89316222D01*
G37*
G36*
X104457069Y-89406181D02*
G01*
X104431818Y-89444663D01*
X104345944Y-89450649D01*
X104255602Y-89429972D01*
X104294791Y-89399497D01*
X104427115Y-89389403D01*
X104457069Y-89406181D01*
G37*
G36*
X105721777Y-92533556D02*
G01*
X105710155Y-92583890D01*
X105665333Y-92590000D01*
X105595643Y-92559022D01*
X105608888Y-92533556D01*
X105709368Y-92523423D01*
X105721777Y-92533556D01*
G37*
G36*
X111992402Y-98888847D02*
G01*
X111967151Y-98927329D01*
X111881277Y-98933316D01*
X111790935Y-98912639D01*
X111830125Y-98882163D01*
X111962448Y-98872070D01*
X111992402Y-98888847D01*
G37*
G36*
X115543111Y-100153556D02*
G01*
X115531488Y-100203890D01*
X115486666Y-100210000D01*
X115416976Y-100179022D01*
X115430222Y-100153556D01*
X115530701Y-100143423D01*
X115543111Y-100153556D01*
G37*
G36*
X115881777Y-100068889D02*
G01*
X115870155Y-100119223D01*
X115825333Y-100125334D01*
X115755643Y-100094355D01*
X115768888Y-100068889D01*
X115869368Y-100058756D01*
X115881777Y-100068889D01*
G37*
G36*
X166258444Y-92872222D02*
G01*
X166246822Y-92922557D01*
X166202000Y-92928667D01*
X166132309Y-92897689D01*
X166145555Y-92872222D01*
X166246035Y-92862089D01*
X166258444Y-92872222D01*
G37*
G36*
X170920402Y-102698847D02*
G01*
X170895151Y-102737329D01*
X170809277Y-102743316D01*
X170718935Y-102722639D01*
X170758125Y-102692163D01*
X170890448Y-102682070D01*
X170920402Y-102698847D01*
G37*
G36*
X171169111Y-102778222D02*
G01*
X171157488Y-102828557D01*
X171112666Y-102834667D01*
X171042976Y-102803689D01*
X171056222Y-102778222D01*
X171156701Y-102768089D01*
X171169111Y-102778222D01*
G37*
G36*
X171507777Y-102862889D02*
G01*
X171496155Y-102913223D01*
X171451333Y-102919334D01*
X171381643Y-102888355D01*
X171394888Y-102862889D01*
X171495368Y-102852756D01*
X171507777Y-102862889D01*
G37*
G36*
X173419833Y-91602594D02*
G01*
X173430469Y-91633496D01*
X173314000Y-91645298D01*
X173193804Y-91631993D01*
X173208166Y-91602594D01*
X173381508Y-91591411D01*
X173419833Y-91602594D01*
G37*
G36*
X173883736Y-91522847D02*
G01*
X173858485Y-91561329D01*
X173772611Y-91567316D01*
X173682268Y-91546639D01*
X173721458Y-91516163D01*
X173853782Y-91506070D01*
X173883736Y-91522847D01*
G37*
G36*
X174391736Y-91438181D02*
G01*
X174366485Y-91476663D01*
X174280611Y-91482649D01*
X174190268Y-91461972D01*
X174229458Y-91431497D01*
X174361782Y-91421403D01*
X174391736Y-91438181D01*
G37*
G36*
X174979111Y-83304889D02*
G01*
X174967488Y-83355223D01*
X174922666Y-83361334D01*
X174852976Y-83330355D01*
X174866222Y-83304889D01*
X174966701Y-83294756D01*
X174979111Y-83304889D01*
G37*
G36*
X175402444Y-83135556D02*
G01*
X175390822Y-83185890D01*
X175346000Y-83192000D01*
X175276309Y-83161022D01*
X175289555Y-83135556D01*
X175390035Y-83125423D01*
X175402444Y-83135556D01*
G37*
G36*
X177180444Y-109297556D02*
G01*
X177168822Y-109347890D01*
X177124000Y-109354000D01*
X177054309Y-109323022D01*
X177067555Y-109297556D01*
X177168035Y-109287423D01*
X177180444Y-109297556D01*
G37*
G36*
X180955166Y-105064594D02*
G01*
X180965802Y-105095496D01*
X180849333Y-105107298D01*
X180729137Y-105093993D01*
X180743500Y-105064594D01*
X180916842Y-105053411D01*
X180955166Y-105064594D01*
G37*
G36*
X181419069Y-105154181D02*
G01*
X181393818Y-105192663D01*
X181307944Y-105198649D01*
X181217602Y-105177972D01*
X181256791Y-105147497D01*
X181389115Y-105137403D01*
X181419069Y-105154181D01*
G37*
G36*
X181842402Y-105238847D02*
G01*
X181817151Y-105277329D01*
X181731277Y-105283316D01*
X181640935Y-105262639D01*
X181680125Y-105232163D01*
X181812448Y-105222070D01*
X181842402Y-105238847D01*
G37*
G36*
X182175777Y-105318222D02*
G01*
X182164155Y-105368557D01*
X182119333Y-105374667D01*
X182049643Y-105343689D01*
X182062888Y-105318222D01*
X182163368Y-105308089D01*
X182175777Y-105318222D01*
G37*
G36*
X182514444Y-92533556D02*
G01*
X182502822Y-92583890D01*
X182458000Y-92590000D01*
X182388309Y-92559022D01*
X182401555Y-92533556D01*
X182502035Y-92523423D01*
X182514444Y-92533556D01*
G37*
G36*
X182604402Y-105408181D02*
G01*
X182579151Y-105446663D01*
X182493277Y-105452649D01*
X182402935Y-105431972D01*
X182442125Y-105401497D01*
X182574448Y-105391403D01*
X182604402Y-105408181D01*
G37*
G36*
X182937777Y-105487556D02*
G01*
X182926155Y-105537890D01*
X182881333Y-105544000D01*
X182811643Y-105513022D01*
X182824888Y-105487556D01*
X182925368Y-105477423D01*
X182937777Y-105487556D01*
G37*
G36*
X183276444Y-105572222D02*
G01*
X183264822Y-105622557D01*
X183220000Y-105628667D01*
X183150309Y-105597689D01*
X183163555Y-105572222D01*
X183264035Y-105562089D01*
X183276444Y-105572222D01*
G37*
G36*
X183615111Y-105656889D02*
G01*
X183603488Y-105707223D01*
X183558666Y-105713334D01*
X183488976Y-105682355D01*
X183502222Y-105656889D01*
X183602701Y-105646756D01*
X183615111Y-105656889D01*
G37*
G36*
X102301444Y-100577798D02*
G01*
X102304259Y-100605592D01*
X102171717Y-100616944D01*
X102151666Y-100616828D01*
X102020352Y-100604619D01*
X102032887Y-100578850D01*
X102047444Y-100574660D01*
X102231874Y-100562265D01*
X102301444Y-100577798D01*
G37*
G36*
X104830537Y-89501716D02*
G01*
X104945666Y-89542000D01*
X105038002Y-89597961D01*
X104988000Y-89614765D01*
X104806795Y-89582284D01*
X104691666Y-89542000D01*
X104599330Y-89486039D01*
X104649333Y-89469235D01*
X104830537Y-89501716D01*
G37*
G36*
X170362537Y-102540383D02*
G01*
X170477666Y-102580667D01*
X170570002Y-102636628D01*
X170520000Y-102653432D01*
X170338795Y-102620951D01*
X170223666Y-102580667D01*
X170131330Y-102524706D01*
X170181333Y-102507902D01*
X170362537Y-102540383D01*
G37*
G36*
X173625478Y-83822197D02*
G01*
X173568000Y-83869334D01*
X173413651Y-83940977D01*
X173356333Y-83951407D01*
X173341188Y-83916470D01*
X173398666Y-83869334D01*
X173553015Y-83797690D01*
X173610333Y-83787260D01*
X173625478Y-83822197D01*
G37*
G36*
X174726145Y-83398864D02*
G01*
X174668666Y-83446000D01*
X174514317Y-83517644D01*
X174457000Y-83528074D01*
X174441854Y-83493136D01*
X174499333Y-83446000D01*
X174653682Y-83374356D01*
X174711000Y-83363926D01*
X174726145Y-83398864D01*
G37*
G36*
X181336166Y-92700971D02*
G01*
X181362517Y-92725511D01*
X181245444Y-92738872D01*
X181188000Y-92739691D01*
X181033964Y-92730863D01*
X181015810Y-92708886D01*
X181039833Y-92700971D01*
X181254567Y-92687803D01*
X181336166Y-92700971D01*
G37*
G36*
X174261561Y-83590715D02*
G01*
X174245333Y-83601049D01*
X174064283Y-83684457D01*
X173906666Y-83736135D01*
X173779248Y-83760975D01*
X173805771Y-83724619D01*
X173822000Y-83714284D01*
X174003050Y-83630877D01*
X174160666Y-83579199D01*
X174288084Y-83554359D01*
X174261561Y-83590715D01*
G37*
G36*
X102307029Y-90998296D02*
G01*
X102387054Y-91004132D01*
X102466216Y-91017679D01*
X102393347Y-91028329D01*
X102185741Y-91034721D01*
X101982333Y-91035947D01*
X101700751Y-91032812D01*
X101548251Y-91024727D01*
X101539818Y-91013048D01*
X101625054Y-91003662D01*
X101963962Y-90990851D01*
X102307029Y-90998296D01*
G37*
G36*
X122000034Y-136976500D02*
G01*
X121997177Y-137252200D01*
X121970735Y-137398610D01*
X121906900Y-137455492D01*
X121830961Y-137463334D01*
X121707364Y-137434312D01*
X121703448Y-137316102D01*
X121716055Y-137272834D01*
X121786997Y-137061417D01*
X121878130Y-136805092D01*
X121885128Y-136786000D01*
X121994068Y-136489667D01*
X122000034Y-136976500D01*
G37*
G36*
X107808348Y-99121205D02*
G01*
X108138129Y-99131060D01*
X108277399Y-99141077D01*
X108259650Y-99149652D01*
X108097195Y-99156142D01*
X107802347Y-99159909D01*
X107570333Y-99160594D01*
X107198566Y-99158878D01*
X106947678Y-99153985D01*
X106831229Y-99146558D01*
X106862780Y-99137242D01*
X106952795Y-99131300D01*
X107352658Y-99120079D01*
X107808348Y-99121205D01*
G37*
G36*
X168030511Y-93026052D02*
G01*
X168297500Y-93035216D01*
X168424578Y-93045523D01*
X168395495Y-93054271D01*
X168223421Y-93060775D01*
X167921527Y-93064355D01*
X167726000Y-93064834D01*
X167364130Y-93062974D01*
X167125496Y-93057846D01*
X167023267Y-93050135D01*
X167070613Y-93040522D01*
X167154500Y-93035216D01*
X167571409Y-93023761D01*
X168030511Y-93026052D01*
G37*
G36*
X151715389Y-56359075D02*
G01*
X151717731Y-56944178D01*
X151716627Y-57383829D01*
X151709755Y-57701907D01*
X151694792Y-57922291D01*
X151669415Y-58068858D01*
X151631303Y-58165487D01*
X151578132Y-58236056D01*
X151528043Y-58285242D01*
X151338838Y-58409540D01*
X151081996Y-58463184D01*
X150900928Y-58469334D01*
X150469770Y-58469334D01*
X150756859Y-57559167D01*
X150907195Y-57085743D01*
X151084701Y-56531592D01*
X151263649Y-55976846D01*
X151375363Y-55633000D01*
X151706778Y-54617000D01*
X151715389Y-56359075D01*
G37*
G36*
X104828072Y-100134790D02*
G01*
X104824604Y-100151121D01*
X104677507Y-100189573D01*
X104410278Y-100245020D01*
X104046413Y-100312336D01*
X103887333Y-100340024D01*
X103347230Y-100429329D01*
X102922886Y-100492824D01*
X102626095Y-100529138D01*
X102468650Y-100536899D01*
X102462346Y-100514733D01*
X102490333Y-100502566D01*
X102632178Y-100467231D01*
X102900203Y-100415758D01*
X103252780Y-100354695D01*
X103648283Y-100290591D01*
X104045084Y-100229995D01*
X104401557Y-100179456D01*
X104676075Y-100145523D01*
X104827009Y-100134744D01*
X104828072Y-100134790D01*
G37*
G36*
X172975333Y-91684757D02*
G01*
X172945568Y-91705089D01*
X172781438Y-91743953D01*
X172516198Y-91795840D01*
X172183102Y-91855243D01*
X171815402Y-91916656D01*
X171446353Y-91974569D01*
X171109210Y-92023477D01*
X170837225Y-92057872D01*
X170663653Y-92072246D01*
X170637448Y-92071948D01*
X170657553Y-92055473D01*
X170820209Y-92016885D01*
X171100823Y-91961236D01*
X171474807Y-91893579D01*
X171663000Y-91861241D01*
X172099302Y-91790476D01*
X172481982Y-91734186D01*
X172777067Y-91696939D01*
X172950587Y-91683305D01*
X172975333Y-91684757D01*
G37*
G36*
X165478099Y-92938967D02*
G01*
X165689769Y-92966075D01*
X165778196Y-93004299D01*
X165778666Y-93007445D01*
X165850407Y-93082746D01*
X165969166Y-93122915D01*
X165983541Y-93141099D01*
X165854892Y-93157344D01*
X165609528Y-93168885D01*
X165510424Y-93171137D01*
X165179817Y-93183154D01*
X164905017Y-93204263D01*
X164739004Y-93230206D01*
X164727258Y-93234059D01*
X164620227Y-93228065D01*
X164593333Y-93107059D01*
X164607271Y-93013517D01*
X164673406Y-92959945D01*
X164828217Y-92935362D01*
X165108183Y-92928787D01*
X165186000Y-92928667D01*
X165478099Y-92938967D01*
G37*
G36*
X85383545Y-89162272D02*
G01*
X85703969Y-89204118D01*
X86100772Y-89264508D01*
X86544076Y-89338511D01*
X87003999Y-89421198D01*
X87450662Y-89507641D01*
X87854184Y-89592909D01*
X88097000Y-89649758D01*
X88218745Y-89687199D01*
X88193159Y-89700891D01*
X88040251Y-89693010D01*
X87780025Y-89665735D01*
X87432489Y-89621242D01*
X87017650Y-89561709D01*
X86555513Y-89489314D01*
X86424858Y-89467783D01*
X85949594Y-89383132D01*
X85556247Y-89302272D01*
X85269215Y-89230945D01*
X85112893Y-89174894D01*
X85091358Y-89153925D01*
X85169381Y-89143897D01*
X85383545Y-89162272D01*
G37*
G36*
X102398361Y-92024713D02*
G01*
X102621743Y-92048476D01*
X102947479Y-92089286D01*
X103343113Y-92142485D01*
X103776188Y-92203416D01*
X104214245Y-92267420D01*
X104624829Y-92329840D01*
X104975482Y-92386018D01*
X105233747Y-92431297D01*
X105367166Y-92461019D01*
X105369000Y-92461657D01*
X105412076Y-92492697D01*
X105310002Y-92499281D01*
X105084837Y-92483699D01*
X104758639Y-92448238D01*
X104353466Y-92395190D01*
X103891376Y-92326842D01*
X103566913Y-92274627D01*
X103126646Y-92198867D01*
X102755439Y-92129984D01*
X102480675Y-92073467D01*
X102329738Y-92034805D01*
X102309790Y-92022654D01*
X102398361Y-92024713D01*
G37*
G36*
X190256403Y-91664648D02*
G01*
X190203497Y-91696726D01*
X190063507Y-91733360D01*
X189818385Y-91778079D01*
X189450078Y-91834410D01*
X188940538Y-91905881D01*
X188634868Y-91947359D01*
X187394925Y-92108943D01*
X186305916Y-92238897D01*
X185352726Y-92338783D01*
X184520238Y-92410164D01*
X183793339Y-92454602D01*
X183679101Y-92459593D01*
X183481193Y-92464241D01*
X183414150Y-92456258D01*
X183483025Y-92434904D01*
X183692874Y-92399435D01*
X184048749Y-92349110D01*
X184555705Y-92283188D01*
X185218796Y-92200926D01*
X186043077Y-92101583D01*
X186437333Y-92054732D01*
X187216594Y-91963077D01*
X187942972Y-91878861D01*
X188599448Y-91803970D01*
X189168998Y-91740289D01*
X189634604Y-91689702D01*
X189979242Y-91654094D01*
X190185893Y-91635350D01*
X190240277Y-91633599D01*
X190256403Y-91664648D01*
G37*
G36*
X98003000Y-104813522D02*
G01*
X97913566Y-104862522D01*
X97892360Y-104897343D01*
X97959254Y-104921040D01*
X98134121Y-104936669D01*
X98436833Y-104947284D01*
X98887263Y-104955942D01*
X98934333Y-104956707D01*
X100119666Y-104975833D01*
X98976666Y-105044318D01*
X98342052Y-105086483D01*
X97691138Y-105137066D01*
X97062325Y-105192509D01*
X96494014Y-105249249D01*
X96024608Y-105303726D01*
X95738166Y-105344584D01*
X95503731Y-105360051D01*
X95420798Y-105304874D01*
X95420666Y-105301078D01*
X95336762Y-105247713D01*
X95086326Y-105211920D01*
X94671273Y-105193961D01*
X94637500Y-105193400D01*
X93854333Y-105181467D01*
X94785666Y-105112527D01*
X95337471Y-105064216D01*
X95993000Y-104995176D01*
X96689013Y-104912907D01*
X97362270Y-104824910D01*
X97949532Y-104738684D01*
X97983661Y-104733249D01*
X98257000Y-104689463D01*
X98003000Y-104813522D01*
G37*
G36*
X128509242Y-89788302D02*
G01*
X129213145Y-89996341D01*
X129817341Y-90334973D01*
X130310338Y-90790507D01*
X130680641Y-91349254D01*
X130916757Y-91997524D01*
X131007192Y-92721626D01*
X131007716Y-92764225D01*
X130933680Y-93454705D01*
X130712825Y-94081791D01*
X130360951Y-94629298D01*
X129893859Y-95081041D01*
X129327349Y-95420832D01*
X128677222Y-95632488D01*
X128144333Y-95697401D01*
X127618092Y-95692387D01*
X127212779Y-95626566D01*
X127092697Y-95588551D01*
X126462126Y-95279835D01*
X125943703Y-94866397D01*
X125540544Y-94369817D01*
X125255769Y-93811675D01*
X125092496Y-93213552D01*
X125053843Y-92597029D01*
X125142929Y-91983686D01*
X125362870Y-91395104D01*
X125716787Y-90852864D01*
X126207797Y-90378546D01*
X126327174Y-90290602D01*
X126945919Y-89951706D01*
X127601938Y-89771874D01*
X128276449Y-89755430D01*
X128509242Y-89788302D01*
G37*
G36*
X123498607Y-138437083D02*
G01*
X123435646Y-138660592D01*
X123333382Y-138999805D01*
X123198699Y-139432174D01*
X123038483Y-139935149D01*
X122923609Y-140290190D01*
X122302333Y-142199050D01*
X121138166Y-142201859D01*
X120716243Y-142200312D01*
X120362514Y-142194129D01*
X120107547Y-142184221D01*
X119981909Y-142171499D01*
X119974000Y-142167148D01*
X120000455Y-142079038D01*
X120073979Y-141856941D01*
X120185813Y-141526732D01*
X120327194Y-141114289D01*
X120482000Y-140666689D01*
X120643301Y-140200947D01*
X120783484Y-139793847D01*
X120893812Y-139470952D01*
X120965548Y-139257823D01*
X120990000Y-139180208D01*
X121068088Y-139169185D01*
X121276045Y-139160361D01*
X121574405Y-139155189D01*
X121688500Y-139154522D01*
X122387000Y-139152378D01*
X122936440Y-138737351D01*
X123193293Y-138549213D01*
X123393827Y-138413377D01*
X123504533Y-138352158D01*
X123515382Y-138351827D01*
X123498607Y-138437083D01*
G37*
G36*
X92711333Y-105982838D02*
G01*
X92552982Y-106031628D01*
X92256858Y-106121492D01*
X91847443Y-106245053D01*
X91349217Y-106394936D01*
X90786662Y-106563767D01*
X90184261Y-106744169D01*
X90175743Y-106746717D01*
X89200485Y-107037668D01*
X88376469Y-107281529D01*
X87693108Y-107481067D01*
X87139818Y-107639049D01*
X86706014Y-107758244D01*
X86381110Y-107841420D01*
X86154521Y-107891344D01*
X86015662Y-107910785D01*
X85953948Y-107902509D01*
X85958793Y-107869287D01*
X85984566Y-107842654D01*
X86090451Y-107796913D01*
X86338486Y-107713291D01*
X86707285Y-107597838D01*
X87175462Y-107456605D01*
X87721633Y-107295644D01*
X88324412Y-107121004D01*
X88962413Y-106938737D01*
X89614251Y-106754893D01*
X90258540Y-106575524D01*
X90873895Y-106406679D01*
X91438930Y-106254410D01*
X91932260Y-106124767D01*
X92332500Y-106023802D01*
X92618263Y-105957565D01*
X92711333Y-105939394D01*
X93007666Y-105888820D01*
X92711333Y-105982838D01*
G37*
G36*
X112233158Y-99015841D02*
G01*
X113163796Y-99020966D01*
X113327666Y-99022196D01*
X114089209Y-99028680D01*
X114697167Y-99035486D01*
X115167285Y-99043322D01*
X115515311Y-99052893D01*
X115756992Y-99064904D01*
X115908075Y-99080061D01*
X115984307Y-99099070D01*
X116001435Y-99122636D01*
X115987611Y-99141395D01*
X115897846Y-99150295D01*
X115657751Y-99161582D01*
X115286304Y-99174692D01*
X114802483Y-99189065D01*
X114225264Y-99204137D01*
X113573627Y-99219346D01*
X112866548Y-99234129D01*
X112840833Y-99234636D01*
X111922454Y-99250625D01*
X111169560Y-99259153D01*
X110578467Y-99260189D01*
X110145491Y-99253701D01*
X109866947Y-99239659D01*
X109739150Y-99218031D01*
X109729333Y-99208198D01*
X109656214Y-99133513D01*
X109496500Y-99085310D01*
X109434552Y-99064892D01*
X109535031Y-99047784D01*
X109791060Y-99034097D01*
X110195764Y-99023947D01*
X110742266Y-99017445D01*
X111423689Y-99014706D01*
X112233158Y-99015841D01*
G37*
G36*
X100898089Y-119989677D02*
G01*
X101196867Y-120026518D01*
X101467119Y-120104724D01*
X101753012Y-120226032D01*
X102285295Y-120550498D01*
X102755688Y-120988521D01*
X103123646Y-121497338D01*
X103288689Y-121845792D01*
X103429359Y-122415830D01*
X103465130Y-123045677D01*
X103395954Y-123663290D01*
X103290115Y-124036396D01*
X102992283Y-124601816D01*
X102567806Y-125086352D01*
X102045657Y-125475328D01*
X101454810Y-125754070D01*
X100824239Y-125907901D01*
X100182918Y-125922146D01*
X99732684Y-125838274D01*
X99076961Y-125566790D01*
X98505181Y-125155600D01*
X98037594Y-124621896D01*
X97781960Y-124182192D01*
X97627494Y-123715129D01*
X97551495Y-123161779D01*
X97556129Y-122587028D01*
X97643563Y-122055759D01*
X97704522Y-121863783D01*
X97996356Y-121309094D01*
X98417981Y-120807379D01*
X98930241Y-120400177D01*
X99248321Y-120226032D01*
X99554705Y-120097243D01*
X99824667Y-120022557D01*
X100128324Y-119988222D01*
X100500666Y-119980453D01*
X100898089Y-119989677D01*
G37*
G36*
X121076866Y-143817362D02*
G01*
X121421976Y-143830583D01*
X121635507Y-143854697D01*
X121736252Y-143891405D01*
X121750412Y-143919167D01*
X121729206Y-144043445D01*
X121673648Y-144288841D01*
X121593601Y-144613013D01*
X121545546Y-144798760D01*
X121437371Y-145246336D01*
X121324625Y-145770999D01*
X121226403Y-146282164D01*
X121197561Y-146449760D01*
X121137147Y-146811607D01*
X121087048Y-147103440D01*
X121053394Y-147290049D01*
X121042594Y-147339829D01*
X120963932Y-147317665D01*
X120755681Y-147247952D01*
X120447446Y-147140863D01*
X120068828Y-147006573D01*
X119974000Y-146972584D01*
X119567742Y-146827300D01*
X119209962Y-146700488D01*
X118935619Y-146604460D01*
X118779675Y-146551528D01*
X118767500Y-146547714D01*
X118641428Y-146464612D01*
X118618197Y-146406959D01*
X118642360Y-146296538D01*
X118709737Y-146055273D01*
X118811421Y-145713432D01*
X118938505Y-145301283D01*
X119013914Y-145062167D01*
X119410767Y-143813334D01*
X120581383Y-143813334D01*
X121076866Y-143817362D01*
G37*
G36*
X96117591Y-90950293D02*
G01*
X96394333Y-90976466D01*
X96733903Y-91006473D01*
X97197526Y-91034405D01*
X97739920Y-91058208D01*
X98315805Y-91075827D01*
X98765000Y-91084027D01*
X99316926Y-91090813D01*
X99704463Y-91096236D01*
X99932546Y-91100918D01*
X100006105Y-91105480D01*
X99930076Y-91110542D01*
X99709391Y-91116726D01*
X99348982Y-91124652D01*
X99124833Y-91129319D01*
X98647852Y-91144540D01*
X98266686Y-91167464D01*
X98003853Y-91196137D01*
X97881868Y-91228608D01*
X97876000Y-91237597D01*
X97827485Y-91308157D01*
X97812500Y-91307552D01*
X97700209Y-91291188D01*
X97473541Y-91261407D01*
X97241000Y-91232075D01*
X96931523Y-91203893D01*
X96518808Y-91180117D01*
X96068948Y-91164127D01*
X95827830Y-91159856D01*
X95453134Y-91149333D01*
X95144664Y-91128026D01*
X94939547Y-91099283D01*
X94875250Y-91073956D01*
X94910016Y-91010220D01*
X95082517Y-90964004D01*
X95361869Y-90937290D01*
X95717188Y-90932059D01*
X96117591Y-90950293D01*
G37*
G36*
X85027833Y-92135454D02*
G01*
X85149547Y-92149943D01*
X85421844Y-92179447D01*
X85826816Y-92222114D01*
X86346556Y-92276090D01*
X86963156Y-92339524D01*
X87658707Y-92410563D01*
X88415301Y-92487355D01*
X89028333Y-92549252D01*
X89816942Y-92629075D01*
X90555960Y-92704604D01*
X91227861Y-92773996D01*
X91815118Y-92835408D01*
X92300206Y-92886995D01*
X92665599Y-92926914D01*
X92893769Y-92953322D01*
X92965333Y-92963384D01*
X92984865Y-92982103D01*
X92861133Y-92991075D01*
X92619891Y-92990929D01*
X92286890Y-92982297D01*
X91887883Y-92965809D01*
X91448620Y-92942096D01*
X91064205Y-92916829D01*
X90641034Y-92882215D01*
X90083657Y-92830147D01*
X89425881Y-92764272D01*
X88701514Y-92688236D01*
X87944362Y-92605685D01*
X87188233Y-92520265D01*
X86466934Y-92435623D01*
X85814274Y-92355404D01*
X85578166Y-92325134D01*
X85248633Y-92275791D01*
X84994463Y-92225409D01*
X84853622Y-92182086D01*
X84837333Y-92167122D01*
X84907739Y-92130441D01*
X85027833Y-92135454D01*
G37*
G36*
X174729814Y-119731403D02*
G01*
X175016420Y-119755282D01*
X175245766Y-119807975D01*
X175473804Y-119900064D01*
X175613186Y-119968423D01*
X176200670Y-120353929D01*
X176668562Y-120841160D01*
X177010631Y-121406701D01*
X177220642Y-122027141D01*
X177292361Y-122679063D01*
X177219556Y-123339056D01*
X176995993Y-123983705D01*
X176782405Y-124360192D01*
X176360848Y-124850164D01*
X175831574Y-125235409D01*
X175228380Y-125503267D01*
X174585061Y-125641084D01*
X173935412Y-125636201D01*
X173570052Y-125563281D01*
X172888267Y-125293646D01*
X172317427Y-124901766D01*
X171867678Y-124400921D01*
X171549167Y-123804396D01*
X171372041Y-123125473D01*
X171337519Y-122640722D01*
X171349818Y-122253207D01*
X171400583Y-121948395D01*
X171508345Y-121640836D01*
X171597494Y-121441958D01*
X171972090Y-120827125D01*
X172461557Y-120323888D01*
X173046711Y-119951879D01*
X173060000Y-119945561D01*
X173314890Y-119836974D01*
X173553917Y-119770757D01*
X173833895Y-119737079D01*
X174211638Y-119726106D01*
X174330000Y-119725759D01*
X174729814Y-119731403D01*
G37*
G36*
X168544309Y-89824087D02*
G01*
X168478416Y-89855034D01*
X168275477Y-89919193D01*
X167962706Y-90008647D01*
X167567320Y-90115484D01*
X167325780Y-90178456D01*
X166885506Y-90295002D01*
X166502223Y-90402421D01*
X166206596Y-90491656D01*
X166029288Y-90553650D01*
X165994566Y-90571620D01*
X166026588Y-90610780D01*
X166192252Y-90641097D01*
X166417900Y-90654834D01*
X166657756Y-90661509D01*
X166761633Y-90669188D01*
X166720986Y-90681453D01*
X166527275Y-90701883D01*
X166244333Y-90727589D01*
X165829564Y-90766786D01*
X165395174Y-90811135D01*
X165037833Y-90850735D01*
X164508666Y-90913293D01*
X164508666Y-90608647D01*
X164535599Y-90390904D01*
X164608682Y-90303595D01*
X164614500Y-90303232D01*
X164775964Y-90291772D01*
X165070027Y-90261510D01*
X165461545Y-90216800D01*
X165915377Y-90162000D01*
X166396378Y-90101465D01*
X166869405Y-90039552D01*
X167299316Y-89980617D01*
X167650967Y-89929015D01*
X167716862Y-89918678D01*
X168062716Y-89867184D01*
X168339780Y-89832859D01*
X168509865Y-89820068D01*
X168544309Y-89824087D01*
G37*
G36*
X147974133Y-89575906D02*
G01*
X148529454Y-89702767D01*
X149030169Y-89955575D01*
X149519148Y-90349937D01*
X149535223Y-90365204D01*
X149917374Y-90775677D01*
X150176232Y-91179546D01*
X150330953Y-91623688D01*
X150400693Y-92154982D01*
X150409769Y-92505334D01*
X150401514Y-92932028D01*
X150370785Y-93246203D01*
X150308630Y-93504131D01*
X150211938Y-93749176D01*
X149939058Y-94197315D01*
X149550169Y-94630189D01*
X149095596Y-95000805D01*
X148625664Y-95262172D01*
X148566660Y-95285455D01*
X148111623Y-95404781D01*
X147592780Y-95461496D01*
X147077541Y-95453425D01*
X146633320Y-95378390D01*
X146546140Y-95350669D01*
X146049471Y-95125722D01*
X145594043Y-94832454D01*
X145240373Y-94510504D01*
X145211496Y-94476517D01*
X144824591Y-93886623D01*
X144586696Y-93255313D01*
X144493526Y-92605637D01*
X144540798Y-91960642D01*
X144724227Y-91343379D01*
X145039529Y-90776895D01*
X145482419Y-90284240D01*
X146048614Y-89888462D01*
X146066064Y-89879072D01*
X146371924Y-89728352D01*
X146639111Y-89636610D01*
X146937749Y-89585986D01*
X147321333Y-89559390D01*
X147974133Y-89575906D01*
G37*
G36*
X180147751Y-90437952D02*
G01*
X180136696Y-90461959D01*
X180161720Y-90521736D01*
X180334752Y-90556891D01*
X180569169Y-90568824D01*
X180648338Y-90577795D01*
X180574777Y-90596296D01*
X180364702Y-90622333D01*
X180034322Y-90653912D01*
X179599852Y-90689038D01*
X179579333Y-90690579D01*
X179075171Y-90730057D01*
X178611542Y-90769567D01*
X178222545Y-90805958D01*
X177942281Y-90836077D01*
X177822500Y-90852925D01*
X177622995Y-90866497D01*
X177547348Y-90816936D01*
X177547333Y-90815837D01*
X177462782Y-90782618D01*
X177209240Y-90757172D01*
X176786870Y-90739507D01*
X176195835Y-90729628D01*
X175628222Y-90727334D01*
X175083136Y-90724682D01*
X174603727Y-90717248D01*
X174212765Y-90705811D01*
X173933020Y-90691149D01*
X173787264Y-90674042D01*
X173772499Y-90663834D01*
X173869266Y-90647255D01*
X174115389Y-90628987D01*
X174490909Y-90609842D01*
X174975866Y-90590629D01*
X175550301Y-90572160D01*
X176194254Y-90555246D01*
X176728776Y-90543717D01*
X177425114Y-90528508D01*
X178078127Y-90511237D01*
X178665777Y-90492718D01*
X179166024Y-90473762D01*
X179556831Y-90455182D01*
X179816158Y-90437791D01*
X179908860Y-90426509D01*
X180099486Y-90400785D01*
X180147751Y-90437952D01*
G37*
G36*
X164652887Y-101040662D02*
G01*
X164847333Y-101061800D01*
X165196735Y-101099708D01*
X165607415Y-101126742D01*
X165879503Y-101135153D01*
X166174265Y-101150079D01*
X166397221Y-101183171D01*
X166498333Y-101226000D01*
X166464310Y-101285137D01*
X166296816Y-101310494D01*
X166277552Y-101310667D01*
X166105760Y-101322745D01*
X166047328Y-101352272D01*
X166050509Y-101356732D01*
X166143094Y-101391379D01*
X166373881Y-101460733D01*
X166717024Y-101557522D01*
X167146677Y-101674473D01*
X167636996Y-101804314D01*
X167694454Y-101819313D01*
X168469852Y-102023547D01*
X169081880Y-102189452D01*
X169532004Y-102317464D01*
X169821691Y-102408013D01*
X169952409Y-102461534D01*
X169927333Y-102478475D01*
X169793944Y-102458286D01*
X169539471Y-102404671D01*
X169206676Y-102326977D01*
X168996000Y-102274913D01*
X168226626Y-102088832D01*
X167388394Y-101899709D01*
X166529061Y-101717407D01*
X165696387Y-101551791D01*
X164938130Y-101412726D01*
X164381666Y-101321842D01*
X163950596Y-101255842D01*
X163674941Y-101209548D01*
X163542406Y-101179284D01*
X163540695Y-101161375D01*
X163657512Y-101152144D01*
X163803111Y-101148880D01*
X164080901Y-101133976D01*
X164280890Y-101102747D01*
X164353444Y-101067980D01*
X164445340Y-101038836D01*
X164652887Y-101040662D01*
G37*
G36*
X105271474Y-89666118D02*
G01*
X105498402Y-89710966D01*
X105841516Y-89784748D01*
X106276576Y-89882201D01*
X106779340Y-89998063D01*
X106983697Y-90045964D01*
X107589548Y-90185603D01*
X108215804Y-90324662D01*
X108816668Y-90453339D01*
X109346343Y-90561835D01*
X109759033Y-90640348D01*
X109771666Y-90642587D01*
X110283730Y-90733027D01*
X110652618Y-90800253D01*
X110901747Y-90851388D01*
X111054535Y-90893558D01*
X111134398Y-90933887D01*
X111164755Y-90979500D01*
X111169021Y-91037520D01*
X111168666Y-91067613D01*
X111124691Y-91198788D01*
X111062833Y-91224021D01*
X110921772Y-91205058D01*
X110681233Y-91169457D01*
X110533666Y-91146772D01*
X110212434Y-91109847D01*
X109821338Y-91082821D01*
X109538833Y-91073417D01*
X109247602Y-91058122D01*
X109043299Y-91025013D01*
X108967333Y-90981334D01*
X109041214Y-90923118D01*
X109220550Y-90896797D01*
X109235444Y-90896667D01*
X109405520Y-90884855D01*
X109462039Y-90856053D01*
X109459308Y-90852419D01*
X109365460Y-90816922D01*
X109137856Y-90749618D01*
X108807191Y-90659077D01*
X108404158Y-90553867D01*
X108246552Y-90513872D01*
X107652144Y-90361979D01*
X107074496Y-90210354D01*
X106535716Y-90065197D01*
X106057915Y-89932707D01*
X105663202Y-89819083D01*
X105373686Y-89730524D01*
X105211477Y-89673229D01*
X105184976Y-89655468D01*
X105271474Y-89666118D01*
G37*
G36*
X151830491Y-136251744D02*
G01*
X152034716Y-136348469D01*
X152339406Y-136500583D01*
X152720105Y-136695908D01*
X153091554Y-136890163D01*
X154406298Y-137583358D01*
X155191795Y-139745846D01*
X155394776Y-140309332D01*
X155615405Y-140929990D01*
X155847232Y-141588923D01*
X156083808Y-142267230D01*
X156318683Y-142946011D01*
X156545408Y-143606369D01*
X156757534Y-144229403D01*
X156948610Y-144796213D01*
X157112187Y-145287902D01*
X157241815Y-145685569D01*
X157331046Y-145970315D01*
X157373429Y-146123241D01*
X157375294Y-146144234D01*
X157292392Y-146179558D01*
X157089932Y-146259681D01*
X156806223Y-146369931D01*
X156479576Y-146495638D01*
X156148299Y-146622129D01*
X155850704Y-146734734D01*
X155625100Y-146818781D01*
X155509796Y-146859600D01*
X155502793Y-146861334D01*
X155454648Y-146792438D01*
X155344362Y-146607382D01*
X155190974Y-146338609D01*
X155092909Y-146162834D01*
X154816056Y-145617020D01*
X154583779Y-145048635D01*
X154375967Y-144404003D01*
X154228469Y-143855667D01*
X154174629Y-143668445D01*
X154072969Y-143340142D01*
X153929773Y-142890132D01*
X153751320Y-142337791D01*
X153543895Y-141702495D01*
X153313778Y-141003621D01*
X153067252Y-140260543D01*
X152912869Y-139797940D01*
X152666599Y-139059422D01*
X152438736Y-138371772D01*
X152234578Y-137751298D01*
X152059424Y-137214308D01*
X151918573Y-136777109D01*
X151817323Y-136456009D01*
X151760973Y-136267317D01*
X151751187Y-136222591D01*
X151830491Y-136251744D01*
G37*
G36*
X111196550Y-101294801D02*
G01*
X111239222Y-101319282D01*
X111329844Y-101348820D01*
X111555711Y-101373007D01*
X111882759Y-101389344D01*
X112276388Y-101395334D01*
X112703529Y-101397016D01*
X112989503Y-101405214D01*
X113162465Y-101424654D01*
X113250573Y-101460060D01*
X113281982Y-101516159D01*
X113285333Y-101564667D01*
X113260540Y-101670279D01*
X113157479Y-101720354D01*
X112933125Y-101733919D01*
X112902401Y-101734000D01*
X112642731Y-101744407D01*
X112245994Y-101773450D01*
X111743037Y-101817860D01*
X111164702Y-101874370D01*
X110541836Y-101939711D01*
X109905282Y-102010616D01*
X109285885Y-102083816D01*
X108714490Y-102156043D01*
X108221941Y-102224030D01*
X108087152Y-102244182D01*
X107676039Y-102306051D01*
X107327542Y-102356480D01*
X107074626Y-102390847D01*
X106950258Y-102404530D01*
X106944152Y-102404451D01*
X107000417Y-102380394D01*
X107190888Y-102319626D01*
X107486677Y-102230989D01*
X107858899Y-102123328D01*
X107909000Y-102109076D01*
X108327101Y-101992381D01*
X108710653Y-101888979D01*
X109016692Y-101810225D01*
X109200166Y-101767870D01*
X109412591Y-101706629D01*
X109465060Y-101643579D01*
X109366446Y-101589976D01*
X109125623Y-101557079D01*
X109030833Y-101553029D01*
X108880373Y-101543709D01*
X108888849Y-101527255D01*
X109059566Y-101502948D01*
X109395829Y-101470072D01*
X109424750Y-101467511D01*
X109850435Y-101426442D01*
X110273704Y-101379634D01*
X110625912Y-101334886D01*
X110737084Y-101318431D01*
X111017905Y-101287220D01*
X111196550Y-101294801D01*
G37*
G36*
X178125899Y-104430216D02*
G01*
X178452625Y-104453880D01*
X178817333Y-104491921D01*
X179255129Y-104539964D01*
X179677271Y-104579925D01*
X180028585Y-104606912D01*
X180214333Y-104615738D01*
X180463895Y-104632017D01*
X180682041Y-104664293D01*
X180839155Y-104703712D01*
X180905622Y-104741416D01*
X180851826Y-104768550D01*
X180750424Y-104776049D01*
X180515777Y-104803126D01*
X180369424Y-104841602D01*
X180277239Y-104890286D01*
X180330554Y-104931207D01*
X180426000Y-104960163D01*
X180556405Y-105004102D01*
X180542377Y-105020380D01*
X180406160Y-105011203D01*
X180169999Y-104978775D01*
X179856139Y-104925301D01*
X179621666Y-104880434D01*
X179402387Y-104842953D01*
X179147324Y-104812861D01*
X178837133Y-104789482D01*
X178452466Y-104772140D01*
X177973975Y-104760158D01*
X177382315Y-104752860D01*
X176658139Y-104749569D01*
X175875332Y-104749478D01*
X175174468Y-104749929D01*
X174530989Y-104749466D01*
X173963552Y-104748169D01*
X173490811Y-104746119D01*
X173131423Y-104743398D01*
X172904044Y-104740086D01*
X172827329Y-104736263D01*
X172827332Y-104736261D01*
X172913922Y-104728371D01*
X173148436Y-104714475D01*
X173509612Y-104695633D01*
X173976189Y-104672904D01*
X174526903Y-104647346D01*
X175140494Y-104620018D01*
X175303666Y-104612928D01*
X175931170Y-104583709D01*
X176502343Y-104553103D01*
X176995670Y-104522584D01*
X177389640Y-104493626D01*
X177662738Y-104467703D01*
X177793453Y-104446286D01*
X177801333Y-104441858D01*
X177897162Y-104425635D01*
X178125899Y-104430216D01*
G37*
G36*
X155256430Y-45544442D02*
G01*
X155506273Y-45620516D01*
X155817863Y-45726675D01*
X156144685Y-45846040D01*
X156440226Y-45961734D01*
X156657970Y-46056876D01*
X156744862Y-46106822D01*
X156734127Y-46198004D01*
X156674207Y-46431566D01*
X156570577Y-46789623D01*
X156428714Y-47254288D01*
X156254094Y-47807673D01*
X156052192Y-48431891D01*
X155828485Y-49109056D01*
X155795783Y-49206930D01*
X155498349Y-50096136D01*
X155249601Y-50838293D01*
X155044041Y-51446781D01*
X154876172Y-51934981D01*
X154740497Y-52316274D01*
X154631519Y-52604042D01*
X154543740Y-52811664D01*
X154471664Y-52952523D01*
X154409793Y-53039999D01*
X154352630Y-53087472D01*
X154294679Y-53108325D01*
X154230441Y-53115937D01*
X154188410Y-53119531D01*
X153925333Y-53146062D01*
X153920964Y-53881531D01*
X153903062Y-54342943D01*
X153847695Y-54709408D01*
X153742877Y-55053384D01*
X153715265Y-55125000D01*
X153513933Y-55633000D01*
X153507966Y-55116543D01*
X153502000Y-54600085D01*
X152782333Y-54121156D01*
X152481359Y-53912678D01*
X152242200Y-53731442D01*
X152094949Y-53601187D01*
X152062666Y-53553468D01*
X152088170Y-53452968D01*
X152160225Y-53212872D01*
X152272142Y-52854329D01*
X152417236Y-52398491D01*
X152588820Y-51866506D01*
X152780205Y-51279527D01*
X152818696Y-51162187D01*
X153031399Y-50506472D01*
X153240810Y-49846396D01*
X153436627Y-49215512D01*
X153608550Y-48647368D01*
X153746278Y-48175516D01*
X153833532Y-47856849D01*
X154059764Y-47065864D01*
X154287940Y-46440989D01*
X154519824Y-45979002D01*
X154757179Y-45676680D01*
X155001769Y-45530799D01*
X155114850Y-45515334D01*
X155256430Y-45544442D01*
G37*
G36*
X119798186Y-45669893D02*
G01*
X119908207Y-45711742D01*
X120174139Y-45861820D01*
X120405679Y-46085240D01*
X120612964Y-46400913D01*
X120806132Y-46827749D01*
X120995320Y-47384658D01*
X121190665Y-48090552D01*
X121197293Y-48116448D01*
X121283538Y-48428148D01*
X121414356Y-48867338D01*
X121579516Y-49401290D01*
X121768784Y-49997274D01*
X121971926Y-50622563D01*
X122129841Y-51098872D01*
X122334398Y-51720818D01*
X122505712Y-52263433D01*
X122638906Y-52709871D01*
X122729103Y-53043286D01*
X122771426Y-53246833D01*
X122768400Y-53304419D01*
X122744100Y-53402263D01*
X122721753Y-53655475D01*
X122701923Y-54050096D01*
X122685170Y-54572167D01*
X122672059Y-55207730D01*
X122663433Y-55910081D01*
X122656852Y-56632878D01*
X122650454Y-57201600D01*
X122643052Y-57631502D01*
X122633456Y-57937835D01*
X122620478Y-58135855D01*
X122602932Y-58240814D01*
X122579628Y-58267965D01*
X122549378Y-58232563D01*
X122510994Y-58149860D01*
X122492440Y-58105361D01*
X122444952Y-57965463D01*
X122406422Y-57785586D01*
X122375147Y-57544209D01*
X122349425Y-57219809D01*
X122327553Y-56790864D01*
X122307829Y-56235852D01*
X122288550Y-55533250D01*
X122288352Y-55525328D01*
X122232824Y-53304667D01*
X121420681Y-53304667D01*
X120608538Y-53304667D01*
X120039384Y-51717167D01*
X119710598Y-50794933D01*
X119402166Y-49919695D01*
X119118440Y-49104443D01*
X118863768Y-48362164D01*
X118642502Y-47705848D01*
X118458990Y-47148484D01*
X118317584Y-46703061D01*
X118222633Y-46382567D01*
X118178488Y-46199992D01*
X118178769Y-46161600D01*
X118280101Y-46116627D01*
X118499651Y-46027545D01*
X118797377Y-45910474D01*
X118930588Y-45858957D01*
X119270645Y-45731887D01*
X119498798Y-45662507D01*
X119659746Y-45644086D01*
X119798186Y-45669893D01*
G37*
G36*
X183166408Y-96787438D02*
G01*
X183652025Y-96961049D01*
X184163837Y-97267921D01*
X184617406Y-97686809D01*
X184982125Y-98179652D01*
X185227388Y-98708391D01*
X185302327Y-99013245D01*
X185321026Y-99139822D01*
X185346019Y-99234198D01*
X185400275Y-99303718D01*
X185506761Y-99355728D01*
X185688443Y-99397574D01*
X185968290Y-99436602D01*
X186369267Y-99480158D01*
X186914343Y-99535588D01*
X186945333Y-99538756D01*
X187506344Y-99598789D01*
X188078471Y-99664675D01*
X188636092Y-99732977D01*
X189153587Y-99800254D01*
X189605334Y-99863067D01*
X189965714Y-99917977D01*
X190209104Y-99961545D01*
X190309883Y-99990330D01*
X190309977Y-99990422D01*
X190283789Y-100030902D01*
X190197944Y-100040500D01*
X190073298Y-100031970D01*
X189808503Y-100008387D01*
X189431794Y-99972625D01*
X188971402Y-99927556D01*
X188455563Y-99876052D01*
X187912509Y-99820986D01*
X187370473Y-99765232D01*
X186857689Y-99711661D01*
X186402391Y-99663147D01*
X186032812Y-99622562D01*
X185777186Y-99592778D01*
X185703555Y-99583205D01*
X185546277Y-99569157D01*
X185460019Y-99609893D01*
X185413248Y-99744196D01*
X185378000Y-99983635D01*
X185217342Y-100618236D01*
X184920161Y-101218373D01*
X184511701Y-101749769D01*
X184017204Y-102178145D01*
X183583284Y-102420763D01*
X183176301Y-102545559D01*
X182688536Y-102618965D01*
X182187238Y-102636771D01*
X181739658Y-102594765D01*
X181550884Y-102548023D01*
X180891095Y-102255871D01*
X180343366Y-101843788D01*
X179893000Y-101299162D01*
X179686262Y-100947708D01*
X179574776Y-100715735D01*
X179505725Y-100502971D01*
X179469183Y-100255916D01*
X179455220Y-99921073D01*
X179453586Y-99693936D01*
X179457316Y-99301999D01*
X179478133Y-99021356D01*
X179528321Y-98794037D01*
X179620163Y-98562070D01*
X179748666Y-98301258D01*
X180135408Y-97717167D01*
X180624405Y-97255799D01*
X181193830Y-96924648D01*
X181821856Y-96731209D01*
X182486658Y-96682974D01*
X183166408Y-96787438D01*
G37*
G36*
X93740857Y-84819868D02*
G01*
X94337264Y-85009957D01*
X94866630Y-85341155D01*
X95248868Y-85703088D01*
X95493919Y-86017025D01*
X95717297Y-86383856D01*
X95893438Y-86753095D01*
X95996783Y-87074256D01*
X96013333Y-87213006D01*
X96035148Y-87275582D01*
X96109752Y-87327249D01*
X96250887Y-87368920D01*
X96472291Y-87401508D01*
X96787706Y-87425925D01*
X97210871Y-87443086D01*
X97755527Y-87453902D01*
X98435414Y-87459288D01*
X99264272Y-87460156D01*
X99718875Y-87459236D01*
X100419841Y-87457813D01*
X101063360Y-87457475D01*
X101630793Y-87458156D01*
X102103500Y-87459793D01*
X102462845Y-87462320D01*
X102690187Y-87465673D01*
X102766889Y-87469788D01*
X102766875Y-87469800D01*
X102679898Y-87478073D01*
X102444826Y-87492250D01*
X102082754Y-87511280D01*
X101614776Y-87534109D01*
X101061988Y-87559687D01*
X100445485Y-87586961D01*
X100246666Y-87595512D01*
X99613229Y-87624956D01*
X99035656Y-87656364D01*
X98535338Y-87688208D01*
X98133667Y-87718962D01*
X97852036Y-87747099D01*
X97711836Y-87771092D01*
X97700564Y-87777237D01*
X97595750Y-87804999D01*
X97364860Y-87800678D01*
X97065564Y-87767466D01*
X96630583Y-87707285D01*
X96335712Y-87679613D01*
X96153750Y-87690845D01*
X96057499Y-87747374D01*
X96019761Y-87855594D01*
X96013333Y-88014824D01*
X95934135Y-88550705D01*
X95711724Y-89087104D01*
X95368875Y-89591044D01*
X94928363Y-90029549D01*
X94412962Y-90369642D01*
X94373209Y-90389630D01*
X93802809Y-90597139D01*
X93187382Y-90696015D01*
X92588693Y-90679544D01*
X92282018Y-90616941D01*
X91625307Y-90345059D01*
X91052173Y-89931950D01*
X90579806Y-89392161D01*
X90325268Y-88960859D01*
X90199327Y-88579894D01*
X90129289Y-88097117D01*
X90115428Y-87570651D01*
X90158020Y-87058619D01*
X90257340Y-86619143D01*
X90313511Y-86475608D01*
X90633403Y-85957437D01*
X91074579Y-85487617D01*
X91588992Y-85113681D01*
X91802494Y-85002526D01*
X92107124Y-84874717D01*
X92377040Y-84800645D01*
X92682121Y-84766675D01*
X93050000Y-84759120D01*
X93740857Y-84819868D01*
G37*
G36*
X180616192Y-92780005D02*
G01*
X180733929Y-92787224D01*
X180737641Y-92788753D01*
X180694004Y-92819471D01*
X180522871Y-92839530D01*
X180355444Y-92844000D01*
X180084546Y-92861069D01*
X179936444Y-92907844D01*
X179918000Y-92938569D01*
X180000984Y-92960608D01*
X180243395Y-92977078D01*
X180635419Y-92988052D01*
X181167246Y-92993602D01*
X181829061Y-92993802D01*
X182611052Y-92988725D01*
X183503406Y-92978444D01*
X184496311Y-92963032D01*
X185579955Y-92942562D01*
X186744524Y-92917108D01*
X187980205Y-92886742D01*
X188416306Y-92875271D01*
X189047945Y-92859786D01*
X189528718Y-92851883D01*
X189876949Y-92852180D01*
X190110962Y-92861299D01*
X190249082Y-92879862D01*
X190309633Y-92908488D01*
X190314366Y-92939580D01*
X190275855Y-92971119D01*
X190173345Y-92998078D01*
X189992376Y-93021248D01*
X189718490Y-93041419D01*
X189337227Y-93059384D01*
X188834129Y-93075932D01*
X188194736Y-93091855D01*
X187404589Y-93107943D01*
X187150059Y-93112663D01*
X186247500Y-93130272D01*
X185229878Y-93152083D01*
X184151372Y-93176807D01*
X183066162Y-93203157D01*
X182028428Y-93229846D01*
X181092352Y-93255585D01*
X180891666Y-93261396D01*
X180105534Y-93284277D01*
X179308859Y-93307209D01*
X178533133Y-93329304D01*
X177809846Y-93349673D01*
X177170488Y-93367428D01*
X176646551Y-93381681D01*
X176362000Y-93389184D01*
X174965000Y-93425236D01*
X176079820Y-93325075D01*
X176498513Y-93283303D01*
X176855443Y-93239863D01*
X177117112Y-93199408D01*
X177250020Y-93166590D01*
X177258098Y-93161458D01*
X177197864Y-93141438D01*
X176992714Y-93122876D01*
X176667064Y-93106923D01*
X176245330Y-93094731D01*
X175751929Y-93087453D01*
X175677611Y-93086885D01*
X175062958Y-93080740D01*
X174338539Y-93070306D01*
X173563839Y-93056636D01*
X172798340Y-93040781D01*
X172101527Y-93023793D01*
X172086333Y-93023385D01*
X171700030Y-93012640D01*
X171392694Y-93002920D01*
X171171828Y-92993838D01*
X171044938Y-92985010D01*
X171019529Y-92976047D01*
X171103107Y-92966564D01*
X171303177Y-92956175D01*
X171627244Y-92944493D01*
X172082814Y-92931131D01*
X172677391Y-92915704D01*
X173418482Y-92897825D01*
X174313590Y-92877107D01*
X175370222Y-92853165D01*
X175410697Y-92852253D01*
X176340008Y-92832203D01*
X177218833Y-92814954D01*
X178032610Y-92800680D01*
X178766780Y-92789555D01*
X179406783Y-92781751D01*
X179938059Y-92777442D01*
X180346049Y-92776802D01*
X180616192Y-92780005D01*
G37*
G36*
X189134435Y-84410174D02*
G01*
X189146588Y-84443374D01*
X189146666Y-84447605D01*
X189068393Y-84487350D01*
X188846790Y-84566231D01*
X188501677Y-84678054D01*
X188052878Y-84816623D01*
X187520213Y-84975744D01*
X186923505Y-85149222D01*
X186670166Y-85221576D01*
X186052886Y-85397159D01*
X185490810Y-85557388D01*
X185003875Y-85696552D01*
X184612018Y-85808942D01*
X184335173Y-85888845D01*
X184193278Y-85930550D01*
X184178762Y-85935264D01*
X184195899Y-86013618D01*
X184255316Y-86208291D01*
X184335875Y-86452460D01*
X184478846Y-87127999D01*
X184459956Y-87808989D01*
X184284297Y-88472590D01*
X183956960Y-89095963D01*
X183662826Y-89471465D01*
X183349587Y-89818184D01*
X183602293Y-89765235D01*
X183819138Y-89722950D01*
X184162359Y-89659894D01*
X184609113Y-89579971D01*
X185136554Y-89487082D01*
X185721835Y-89385130D01*
X186342113Y-89278017D01*
X186974541Y-89169646D01*
X187596274Y-89063920D01*
X188184466Y-88964740D01*
X188716272Y-88876010D01*
X189168847Y-88801631D01*
X189519346Y-88745506D01*
X189744922Y-88711538D01*
X189820964Y-88702969D01*
X189877021Y-88715115D01*
X189833066Y-88740573D01*
X189680305Y-88781041D01*
X189409944Y-88838218D01*
X189013188Y-88913802D01*
X188481246Y-89009493D01*
X187805322Y-89126988D01*
X186976624Y-89267987D01*
X186352666Y-89372913D01*
X185475819Y-89521698D01*
X184750384Y-89649249D01*
X184160231Y-89758899D01*
X183689231Y-89853981D01*
X183321253Y-89937830D01*
X183040168Y-90013777D01*
X182829847Y-90085157D01*
X182754333Y-90116524D01*
X182512280Y-90215991D01*
X182288133Y-90282457D01*
X182035783Y-90323202D01*
X181709122Y-90345504D01*
X181262042Y-90356642D01*
X181230333Y-90357114D01*
X180855688Y-90358357D01*
X180568598Y-90351031D01*
X180395488Y-90336463D01*
X180362781Y-90315979D01*
X180367788Y-90313829D01*
X180441882Y-90265539D01*
X180392321Y-90203251D01*
X180215210Y-90109803D01*
X179865720Y-89889494D01*
X179493651Y-89569030D01*
X179151223Y-89200173D01*
X178890652Y-88834686D01*
X178845491Y-88752027D01*
X178709506Y-88423382D01*
X178592329Y-88038144D01*
X178546915Y-87830841D01*
X178457282Y-87321981D01*
X178150474Y-87373906D01*
X177848396Y-87421120D01*
X177527940Y-87465846D01*
X177505000Y-87468783D01*
X177166333Y-87511735D01*
X177462666Y-87390309D01*
X177571769Y-87341670D01*
X177608605Y-87307438D01*
X177554008Y-87284460D01*
X177388811Y-87269581D01*
X177093848Y-87259647D01*
X176649953Y-87251504D01*
X176616000Y-87250969D01*
X175473000Y-87233055D01*
X176954666Y-87124281D01*
X177438495Y-87088610D01*
X177862383Y-87057071D01*
X178198014Y-87031794D01*
X178417071Y-87014909D01*
X178490410Y-87008753D01*
X178538923Y-86929937D01*
X178591638Y-86742851D01*
X178603353Y-86684500D01*
X178778670Y-86159555D01*
X179091637Y-85648877D01*
X179512004Y-85188720D01*
X180009519Y-84815337D01*
X180284924Y-84669220D01*
X180944591Y-84453377D01*
X181617082Y-84405929D01*
X182207073Y-84498084D01*
X182825536Y-84716123D01*
X183347583Y-85042135D01*
X183772807Y-85447508D01*
X184113948Y-85826957D01*
X186519747Y-85102145D01*
X187242866Y-84884796D01*
X187820291Y-84712923D01*
X188268257Y-84582483D01*
X188602998Y-84489429D01*
X188840752Y-84429716D01*
X188997752Y-84399300D01*
X189090235Y-84394134D01*
X189134435Y-84410174D01*
G37*
G36*
X92575510Y-97039623D02*
G01*
X93079939Y-97113183D01*
X93420596Y-97225500D01*
X93833525Y-97416000D01*
X102098929Y-97423417D01*
X103277027Y-97425139D01*
X104413566Y-97428088D01*
X105496278Y-97432163D01*
X106512892Y-97437259D01*
X107451141Y-97443274D01*
X108298756Y-97450102D01*
X109043467Y-97457641D01*
X109673005Y-97465788D01*
X110175103Y-97474438D01*
X110537491Y-97483488D01*
X110747900Y-97492835D01*
X110787666Y-97496772D01*
X110810493Y-97512760D01*
X110675503Y-97527624D01*
X110394210Y-97541047D01*
X109978127Y-97552708D01*
X109438769Y-97562290D01*
X108787650Y-97569473D01*
X108036284Y-97573940D01*
X107993666Y-97574095D01*
X107290724Y-97577259D01*
X106447269Y-97582186D01*
X105492113Y-97588648D01*
X104454065Y-97596415D01*
X103361935Y-97605259D01*
X102244532Y-97614949D01*
X101130667Y-97625257D01*
X100049149Y-97635954D01*
X99509223Y-97641592D01*
X94242114Y-97697702D01*
X94492203Y-97982538D01*
X94697911Y-98252054D01*
X94887998Y-98555576D01*
X94919202Y-98614145D01*
X95096111Y-98960915D01*
X96083889Y-98909789D01*
X96491981Y-98891405D01*
X97021276Y-98871613D01*
X97623668Y-98851989D01*
X98251054Y-98834109D01*
X98807333Y-98820591D01*
X100543000Y-98782518D01*
X99428030Y-98882426D01*
X99009321Y-98924104D01*
X98652391Y-98967471D01*
X98390732Y-99007882D01*
X98257836Y-99040691D01*
X98249752Y-99045834D01*
X98311685Y-99064518D01*
X98520064Y-99082001D01*
X98852001Y-99097352D01*
X99284609Y-99109641D01*
X99794998Y-99117938D01*
X100084388Y-99120372D01*
X100771416Y-99126612D01*
X101528419Y-99137255D01*
X102294908Y-99151204D01*
X103010388Y-99167364D01*
X103591000Y-99183872D01*
X105199666Y-99236334D01*
X102321000Y-99300321D01*
X101512296Y-99318588D01*
X100645864Y-99338669D01*
X99765307Y-99359519D01*
X98914230Y-99380092D01*
X98136238Y-99399343D01*
X97474934Y-99416228D01*
X97356949Y-99419323D01*
X95271565Y-99474337D01*
X95233475Y-100117335D01*
X95167739Y-100645916D01*
X95044844Y-101092937D01*
X95012379Y-101171709D01*
X94829374Y-101583084D01*
X95781187Y-101523718D01*
X96243070Y-101491551D01*
X96715096Y-101453071D01*
X97128817Y-101414102D01*
X97325666Y-101392293D01*
X97660338Y-101363024D01*
X97876064Y-101368775D01*
X97946555Y-101400117D01*
X98037245Y-101426107D01*
X98275861Y-101449047D01*
X98641006Y-101467863D01*
X99111286Y-101481485D01*
X99665303Y-101488839D01*
X99724555Y-101489189D01*
X100289919Y-101495122D01*
X100832051Y-101506227D01*
X101315395Y-101521365D01*
X101704391Y-101539401D01*
X101963483Y-101559196D01*
X101982333Y-101561408D01*
X102031073Y-101577277D01*
X101921059Y-101592005D01*
X101662868Y-101605272D01*
X101267077Y-101616759D01*
X100744263Y-101626147D01*
X100105004Y-101633117D01*
X99481665Y-101636886D01*
X98656259Y-101641282D01*
X97977601Y-101647683D01*
X97423108Y-101657157D01*
X96970199Y-101670772D01*
X96596290Y-101689597D01*
X96278799Y-101714700D01*
X95995144Y-101747148D01*
X95722742Y-101788011D01*
X95513515Y-101824589D01*
X95081497Y-101907845D01*
X94773223Y-101982597D01*
X94544900Y-102064956D01*
X94352738Y-102171034D01*
X94152945Y-102316943D01*
X94133342Y-102332382D01*
X93541608Y-102695764D01*
X92887730Y-102911007D01*
X92198742Y-102973916D01*
X91501681Y-102880301D01*
X91197290Y-102787692D01*
X91085936Y-102749418D01*
X90978475Y-102722093D01*
X90855581Y-102707785D01*
X90697929Y-102708562D01*
X90486193Y-102726492D01*
X90201047Y-102763643D01*
X89823166Y-102822083D01*
X89333224Y-102903881D01*
X88711895Y-103011105D01*
X88080793Y-103121201D01*
X87260412Y-103263863D01*
X86595483Y-103377815D01*
X86074856Y-103464636D01*
X85687380Y-103525904D01*
X85421906Y-103563196D01*
X85267283Y-103578090D01*
X85212360Y-103572164D01*
X85245986Y-103546997D01*
X85345333Y-103508280D01*
X85482445Y-103474963D01*
X85762837Y-103418695D01*
X86162670Y-103343837D01*
X86658106Y-103254747D01*
X87225308Y-103155784D01*
X87840439Y-103051308D01*
X87885333Y-103043791D01*
X88501961Y-102940129D01*
X89071575Y-102843389D01*
X89570530Y-102757667D01*
X89975177Y-102687054D01*
X90261870Y-102635646D01*
X90406963Y-102607535D01*
X90411547Y-102606463D01*
X90506963Y-102574624D01*
X90528655Y-102521833D01*
X90463276Y-102419431D01*
X90297476Y-102238756D01*
X90187380Y-102125136D01*
X89912885Y-101793083D01*
X94680830Y-101793083D01*
X94728367Y-101844274D01*
X94880844Y-101854812D01*
X95080490Y-101830947D01*
X95269537Y-101778928D01*
X95378333Y-101717628D01*
X95363587Y-101671926D01*
X95197294Y-101659787D01*
X95088580Y-101665155D01*
X94854790Y-101702110D01*
X94704491Y-101764161D01*
X94680830Y-101793083D01*
X89912885Y-101793083D01*
X89757266Y-101604832D01*
X89468593Y-101058900D01*
X89316837Y-100549041D01*
X89257735Y-100299425D01*
X89196914Y-100178329D01*
X89099124Y-100148293D01*
X88957297Y-100166952D01*
X88732111Y-100200509D01*
X88393618Y-100243942D01*
X87969755Y-100294329D01*
X87488459Y-100348745D01*
X86977664Y-100404267D01*
X86465307Y-100457969D01*
X85979325Y-100506929D01*
X85547653Y-100548223D01*
X85198226Y-100578926D01*
X84958983Y-100596114D01*
X84857857Y-100596864D01*
X84856603Y-100596159D01*
X84855816Y-100569682D01*
X84917776Y-100541167D01*
X85059655Y-100507683D01*
X85298627Y-100466297D01*
X85651866Y-100414080D01*
X86136544Y-100348099D01*
X86769837Y-100265422D01*
X86869333Y-100252606D01*
X87404608Y-100183700D01*
X87905042Y-100119206D01*
X88337597Y-100063387D01*
X88669235Y-100020508D01*
X88866920Y-99994831D01*
X88870325Y-99994385D01*
X89099138Y-99949041D01*
X89214006Y-99864507D01*
X89270289Y-99698564D01*
X89272492Y-99687705D01*
X89309542Y-99476841D01*
X89324666Y-99340784D01*
X89242746Y-99313258D01*
X88996287Y-99296489D01*
X88584244Y-99290464D01*
X88005570Y-99295173D01*
X87259218Y-99310605D01*
X87038666Y-99316342D01*
X86288678Y-99334173D01*
X85698598Y-99342684D01*
X85259249Y-99341754D01*
X84961456Y-99331262D01*
X84796042Y-99311085D01*
X84752666Y-99285975D01*
X84753818Y-99278667D01*
X95166666Y-99278667D01*
X95239122Y-99342313D01*
X95378333Y-99363334D01*
X95537448Y-99334351D01*
X95590000Y-99278667D01*
X95517543Y-99215021D01*
X95378333Y-99194000D01*
X95219218Y-99222983D01*
X95166666Y-99278667D01*
X84753818Y-99278667D01*
X84768455Y-99185850D01*
X84773833Y-99179016D01*
X84860593Y-99173341D01*
X85094575Y-99164921D01*
X85453698Y-99154362D01*
X85915884Y-99142273D01*
X86459053Y-99129261D01*
X87061126Y-99115934D01*
X87080817Y-99115516D01*
X89366634Y-99067000D01*
X89578483Y-98677529D01*
X89758976Y-98372807D01*
X89961009Y-98069476D01*
X90030001Y-97975717D01*
X90269669Y-97663377D01*
X87468782Y-97687855D01*
X86705198Y-97694049D01*
X86094072Y-97697355D01*
X85618541Y-97697030D01*
X85261743Y-97692328D01*
X85006816Y-97682506D01*
X84836898Y-97666818D01*
X84735127Y-97644520D01*
X84684640Y-97614867D01*
X84668575Y-97577114D01*
X84667949Y-97564167D01*
X84677164Y-97524984D01*
X84715645Y-97493363D01*
X84799679Y-97468500D01*
X84945556Y-97449588D01*
X85169566Y-97435824D01*
X85487999Y-97426403D01*
X85917145Y-97420519D01*
X86473294Y-97417367D01*
X87172735Y-97416144D01*
X87666647Y-97416000D01*
X88460573Y-97415640D01*
X89103939Y-97413884D01*
X89615518Y-97409718D01*
X90014084Y-97402129D01*
X90318410Y-97390103D01*
X90547268Y-97372627D01*
X90719432Y-97348687D01*
X90853675Y-97317269D01*
X90968769Y-97277361D01*
X91074480Y-97232005D01*
X91509886Y-97099208D01*
X92031194Y-97035023D01*
X92575510Y-97039623D01*
G37*
G36*
X124931979Y-59845167D02*
G01*
X125154848Y-60424981D01*
X125414356Y-60932670D01*
X125689877Y-61331166D01*
X125854123Y-61502279D01*
X126101109Y-61692602D01*
X126344052Y-61802506D01*
X126658316Y-61862467D01*
X126776165Y-61875117D01*
X126842062Y-61896125D01*
X126822184Y-61945353D01*
X126702019Y-62032217D01*
X126467056Y-62166128D01*
X126102782Y-62356500D01*
X125789470Y-62515138D01*
X124562276Y-63131942D01*
X124255646Y-62923857D01*
X123979103Y-62777595D01*
X123646314Y-62655877D01*
X123523673Y-62624553D01*
X123142115Y-62571903D01*
X122620564Y-62543479D01*
X121986585Y-62539022D01*
X121267739Y-62558276D01*
X120491588Y-62600983D01*
X119762333Y-62659676D01*
X119360022Y-62691340D01*
X118879699Y-62718328D01*
X118308392Y-62740931D01*
X117633134Y-62759441D01*
X116840952Y-62774148D01*
X115918879Y-62785345D01*
X114853943Y-62793323D01*
X113633176Y-62798372D01*
X113581666Y-62798516D01*
X112537718Y-62802212D01*
X111419684Y-62807685D01*
X110262336Y-62814670D01*
X109100447Y-62822902D01*
X107968789Y-62832117D01*
X106902134Y-62842051D01*
X105935254Y-62852438D01*
X105102921Y-62863015D01*
X105102631Y-62863019D01*
X101449595Y-62914334D01*
X101818371Y-63337667D01*
X102022741Y-63562428D01*
X102156907Y-63674563D01*
X102255047Y-63694783D01*
X102338740Y-63652999D01*
X102495396Y-63557588D01*
X102743368Y-63422805D01*
X102956000Y-63314332D01*
X103213626Y-63198446D01*
X103449810Y-63128864D01*
X103724153Y-63094403D01*
X104096256Y-63083882D01*
X104185446Y-63083667D01*
X104574528Y-63089798D01*
X104857734Y-63116981D01*
X105098341Y-63178402D01*
X105359624Y-63287246D01*
X105509835Y-63359653D01*
X106105295Y-63742251D01*
X106582197Y-64237101D01*
X106927750Y-64825476D01*
X107129162Y-65488645D01*
X107167886Y-65787332D01*
X107150199Y-66379323D01*
X107018049Y-66979199D01*
X106788705Y-67515887D01*
X106720603Y-67628185D01*
X106517955Y-67939371D01*
X107128810Y-68510766D01*
X107338628Y-68711482D01*
X107647733Y-69013246D01*
X108036475Y-69396576D01*
X108485203Y-69841993D01*
X108974265Y-70330013D01*
X109484010Y-70841157D01*
X109771666Y-71130731D01*
X110394126Y-71755212D01*
X110914656Y-72269431D01*
X111347840Y-72685999D01*
X111708261Y-73017527D01*
X112010505Y-73276628D01*
X112269155Y-73475914D01*
X112498796Y-73627996D01*
X112714010Y-73745486D01*
X112884408Y-73822552D01*
X113187995Y-73916674D01*
X113606121Y-74002961D01*
X114083988Y-74073157D01*
X114566804Y-74119006D01*
X114942459Y-74132667D01*
X115219688Y-74143920D01*
X115361826Y-74183909D01*
X115401999Y-74261982D01*
X115402000Y-74262324D01*
X115386619Y-74346894D01*
X115322505Y-74408097D01*
X115182701Y-74452963D01*
X114940251Y-74488518D01*
X114568198Y-74521790D01*
X114342575Y-74538518D01*
X113509141Y-74598334D01*
X114188690Y-75318000D01*
X114492052Y-75646786D01*
X114695117Y-75890621D01*
X114819649Y-76081922D01*
X114887414Y-76253101D01*
X114915854Y-76400915D01*
X114963469Y-76764162D01*
X114090915Y-75923742D01*
X113586152Y-75460723D01*
X113120833Y-75094335D01*
X112666804Y-74815952D01*
X112195908Y-74616948D01*
X111679988Y-74488696D01*
X111090890Y-74422569D01*
X110400457Y-74409942D01*
X109580532Y-74442187D01*
X109310073Y-74458993D01*
X108908644Y-74479577D01*
X108363700Y-74498670D01*
X107701056Y-74515812D01*
X106946530Y-74530542D01*
X106125936Y-74542401D01*
X105265089Y-74550928D01*
X104389806Y-74555664D01*
X103837944Y-74556494D01*
X103032428Y-74557400D01*
X102279356Y-74560189D01*
X101595516Y-74564660D01*
X100997700Y-74570611D01*
X100502698Y-74577843D01*
X100127300Y-74586152D01*
X99888296Y-74595340D01*
X99802739Y-74604816D01*
X99805415Y-74703702D01*
X99867056Y-74900411D01*
X99918749Y-75026249D01*
X100017021Y-75326039D01*
X100091708Y-75694102D01*
X100117023Y-75922232D01*
X100150471Y-76445598D01*
X103056069Y-78109334D01*
X103761684Y-78515366D01*
X104476915Y-78930592D01*
X105175286Y-79339384D01*
X105830321Y-79726117D01*
X106415541Y-80075163D01*
X106904471Y-80370895D01*
X107249024Y-80584049D01*
X108013362Y-81049269D01*
X108686759Y-81417188D01*
X109307054Y-81700464D01*
X109912084Y-81911753D01*
X110539685Y-82063709D01*
X111227696Y-82168990D01*
X112013953Y-82240251D01*
X112245007Y-82255121D01*
X113327666Y-82320185D01*
X112036500Y-82332759D01*
X111564388Y-82342340D01*
X111177646Y-82360037D01*
X110900933Y-82384086D01*
X110758908Y-82412720D01*
X110745333Y-82425201D01*
X110811315Y-82512399D01*
X110979688Y-82646509D01*
X111105166Y-82729975D01*
X111274700Y-82843270D01*
X111333261Y-82898774D01*
X111295666Y-82893412D01*
X110837627Y-82728048D01*
X110474533Y-82604048D01*
X110168819Y-82515394D01*
X109882918Y-82456070D01*
X109579262Y-82420058D01*
X109220285Y-82401343D01*
X108768420Y-82393907D01*
X108186100Y-82391733D01*
X108163000Y-82391679D01*
X107035644Y-82390106D01*
X105914136Y-82390631D01*
X104811186Y-82393114D01*
X103739505Y-82397417D01*
X102711805Y-82403400D01*
X101740796Y-82410924D01*
X100839190Y-82419852D01*
X100019697Y-82430043D01*
X99295030Y-82441358D01*
X98677899Y-82453659D01*
X98181015Y-82466806D01*
X97817090Y-82480661D01*
X97598834Y-82495085D01*
X97537333Y-82507862D01*
X97610673Y-82575891D01*
X97798901Y-82666662D01*
X97960666Y-82726334D01*
X98197463Y-82811104D01*
X98351102Y-82877850D01*
X98384000Y-82902471D01*
X98377813Y-82922117D01*
X98340502Y-82926750D01*
X98243938Y-82910778D01*
X98059994Y-82868611D01*
X97760543Y-82794656D01*
X97452666Y-82717339D01*
X96956086Y-82601376D01*
X96472931Y-82509923D01*
X95978663Y-82441607D01*
X95448746Y-82395056D01*
X94858641Y-82368896D01*
X94183811Y-82361756D01*
X93399719Y-82372263D01*
X92481827Y-82399044D01*
X92046909Y-82414952D01*
X91298501Y-82441568D01*
X90523509Y-82465514D01*
X89760158Y-82485864D01*
X89046672Y-82501692D01*
X88421274Y-82512071D01*
X87922188Y-82516077D01*
X87872093Y-82516085D01*
X87336860Y-82515029D01*
X86948438Y-82511147D01*
X86684306Y-82501610D01*
X86521942Y-82483589D01*
X86438823Y-82454257D01*
X86412427Y-82410785D01*
X86420232Y-82350346D01*
X86424355Y-82334292D01*
X86471524Y-82153917D01*
X88850595Y-82228459D01*
X89546124Y-82248165D01*
X90256009Y-82264540D01*
X90942087Y-82276970D01*
X91566193Y-82284847D01*
X92090162Y-82287557D01*
X92415000Y-82285545D01*
X92928848Y-82271308D01*
X93454990Y-82245071D01*
X93964848Y-82209542D01*
X94429847Y-82167425D01*
X94821414Y-82121427D01*
X95110971Y-82074252D01*
X95269944Y-82028608D01*
X95289531Y-82013358D01*
X95229523Y-81965241D01*
X95038995Y-81880287D01*
X94749299Y-81771360D01*
X94463068Y-81674256D01*
X93609531Y-81389545D01*
X92630051Y-81049969D01*
X91554782Y-80666292D01*
X90413879Y-80249282D01*
X89237495Y-79809706D01*
X89174488Y-79785891D01*
X88594331Y-79565353D01*
X88154679Y-79394277D01*
X87837140Y-79263607D01*
X87623318Y-79164283D01*
X87494820Y-79087247D01*
X87433254Y-79023441D01*
X87420224Y-78963805D01*
X87428173Y-78925862D01*
X87477364Y-78776873D01*
X87497363Y-78729210D01*
X87580605Y-78749459D01*
X87798889Y-78825787D01*
X88130722Y-78949697D01*
X88554610Y-79112691D01*
X89049059Y-79306272D01*
X89592576Y-79521940D01*
X90163667Y-79751200D01*
X90740839Y-79985552D01*
X91302597Y-80216498D01*
X91827448Y-80435542D01*
X92031155Y-80521711D01*
X93137606Y-80979090D01*
X94112356Y-81354051D01*
X94968955Y-81651218D01*
X95720952Y-81875217D01*
X96381898Y-82030669D01*
X96539540Y-82060259D01*
X96768341Y-82096704D01*
X97019529Y-82127551D01*
X97305434Y-82152907D01*
X97638386Y-82172876D01*
X98030716Y-82187564D01*
X98494752Y-82197077D01*
X99042826Y-82201521D01*
X99687265Y-82201001D01*
X100440401Y-82195623D01*
X101314564Y-82185492D01*
X102322082Y-82170715D01*
X103475286Y-82151396D01*
X104666383Y-82129871D01*
X105706268Y-82109573D01*
X106587021Y-82090004D01*
X107318840Y-82070740D01*
X107911925Y-82051356D01*
X108376473Y-82031425D01*
X108722682Y-82010524D01*
X108960750Y-81988228D01*
X109100875Y-81964111D01*
X109149483Y-81943050D01*
X109201581Y-81855778D01*
X109174766Y-81837241D01*
X109063559Y-81796323D01*
X108817267Y-81678000D01*
X108447887Y-81488776D01*
X107967412Y-81235157D01*
X107387840Y-80923649D01*
X106721165Y-80560757D01*
X105979384Y-80152986D01*
X105174491Y-79706842D01*
X104318483Y-79228831D01*
X103423354Y-78725459D01*
X103098048Y-78541668D01*
X102445036Y-78173243D01*
X101839247Y-77833322D01*
X101296174Y-77530461D01*
X100831310Y-77273213D01*
X100460146Y-77070135D01*
X100198175Y-76929781D01*
X100060890Y-76860705D01*
X100043903Y-76855174D01*
X100004802Y-76944635D01*
X99928310Y-77140953D01*
X99874594Y-77284121D01*
X99602810Y-77790948D01*
X99197502Y-78249303D01*
X98692906Y-78633753D01*
X98123259Y-78918866D01*
X97522794Y-79079209D01*
X97444251Y-79089563D01*
X96784429Y-79084266D01*
X96146896Y-78926571D01*
X95556704Y-78633388D01*
X95038902Y-78221631D01*
X94618542Y-77708211D01*
X94320674Y-77110040D01*
X94266901Y-76944501D01*
X94175447Y-76433985D01*
X94168944Y-75877569D01*
X94243335Y-75341877D01*
X94391432Y-74899931D01*
X94497054Y-74675289D01*
X94562976Y-74521106D01*
X94574000Y-74485056D01*
X94491069Y-74474652D01*
X94248759Y-74472791D01*
X93856795Y-74479186D01*
X93324901Y-74493552D01*
X92662800Y-74515601D01*
X91880218Y-74545046D01*
X90986878Y-74581601D01*
X90315582Y-74610616D01*
X89062831Y-74665831D01*
X89165005Y-74441582D01*
X89267180Y-74217334D01*
X91229794Y-74217334D01*
X92043690Y-74210157D01*
X92784567Y-74189466D01*
X93434599Y-74156523D01*
X93975961Y-74112588D01*
X94390825Y-74058922D01*
X94661365Y-73996787D01*
X94724612Y-73970150D01*
X94685917Y-73913346D01*
X94508442Y-73784811D01*
X94203376Y-73591452D01*
X93781906Y-73340175D01*
X93255217Y-73037889D01*
X92819612Y-72793913D01*
X92283551Y-72495984D01*
X91792758Y-72222548D01*
X91367724Y-71985075D01*
X91028939Y-71795034D01*
X90796893Y-71663895D01*
X90692079Y-71603125D01*
X90691439Y-71602718D01*
X90627467Y-71483682D01*
X90641060Y-71319897D01*
X90715704Y-71193361D01*
X90778712Y-71169334D01*
X90874268Y-71212896D01*
X91088915Y-71334319D01*
X91399427Y-71519701D01*
X91782576Y-71755144D01*
X92215138Y-72026747D01*
X92275840Y-72065290D01*
X92773790Y-72375749D01*
X93284068Y-72683145D01*
X93766794Y-72964201D01*
X94182089Y-73195637D01*
X94454707Y-73337140D01*
X95224414Y-73713033D01*
X95809374Y-73436017D01*
X96117689Y-73298542D01*
X96371427Y-73215681D01*
X96636109Y-73173957D01*
X96977254Y-73159898D01*
X97156333Y-73159000D01*
X97554152Y-73166194D01*
X97842738Y-73195267D01*
X98081857Y-73257453D01*
X98331272Y-73363990D01*
X98384000Y-73389797D01*
X98687305Y-73559126D01*
X98968112Y-73747128D01*
X99103666Y-73857441D01*
X99357666Y-74094288D01*
X104564666Y-74030881D01*
X105523193Y-74019029D01*
X106458464Y-74007124D01*
X107352017Y-73995422D01*
X108185392Y-73984180D01*
X108940130Y-73973655D01*
X109597769Y-73964104D01*
X110139851Y-73955785D01*
X110547913Y-73948954D01*
X110787666Y-73944237D01*
X111803666Y-73921000D01*
X110449000Y-72595790D01*
X109959586Y-72123140D01*
X109387358Y-71580426D01*
X108776814Y-71009233D01*
X108172448Y-70451148D01*
X107618759Y-69947756D01*
X107537822Y-69875047D01*
X105981311Y-68479514D01*
X105421155Y-68743745D01*
X104770612Y-68961324D01*
X104102395Y-69019365D01*
X103441161Y-68922283D01*
X102811567Y-68674498D01*
X102238267Y-68280427D01*
X102094424Y-68147655D01*
X101685217Y-67634767D01*
X101386168Y-67024656D01*
X101219739Y-66364952D01*
X101207929Y-66267810D01*
X101189443Y-65970357D01*
X101209420Y-65699649D01*
X101276999Y-65393021D01*
X101389214Y-65024891D01*
X101624735Y-64300869D01*
X101337867Y-64052521D01*
X100891640Y-63700512D01*
X100405637Y-63373922D01*
X99935918Y-63108170D01*
X99619382Y-62966825D01*
X99246928Y-62860950D01*
X98757889Y-62769146D01*
X98204808Y-62697174D01*
X97640227Y-62650797D01*
X97116692Y-62635778D01*
X96745981Y-62651711D01*
X96166296Y-62705371D01*
X96435595Y-62365352D01*
X96704895Y-62025334D01*
X97734947Y-62021676D01*
X98765000Y-62018018D01*
X98189216Y-61476327D01*
X97613433Y-60934637D01*
X97932592Y-60569819D01*
X98108211Y-60367613D01*
X98231026Y-60223447D01*
X98268397Y-60176868D01*
X98334826Y-60217180D01*
X98502580Y-60347921D01*
X98745495Y-60548070D01*
X99006016Y-60769534D01*
X99570819Y-61236054D01*
X100069577Y-61593432D01*
X100540093Y-61855236D01*
X101020172Y-62035031D01*
X101547618Y-62146386D01*
X102160234Y-62202866D01*
X102895825Y-62218039D01*
X103040666Y-62217454D01*
X103589334Y-62207289D01*
X104167056Y-62185661D01*
X104712150Y-62155532D01*
X105162936Y-62119866D01*
X105242000Y-62111715D01*
X105497942Y-62093355D01*
X105920401Y-62075754D01*
X106506560Y-62058954D01*
X107253605Y-62042996D01*
X108158720Y-62027923D01*
X109219088Y-62013775D01*
X110431895Y-62000593D01*
X111794325Y-61988420D01*
X113303562Y-61977296D01*
X114956791Y-61967263D01*
X115128921Y-61966327D01*
X124126843Y-61917873D01*
X124071695Y-61738770D01*
X123989728Y-61523091D01*
X123907965Y-61345912D01*
X123829636Y-61182002D01*
X123702379Y-60905211D01*
X123545414Y-60557673D01*
X123415532Y-60266412D01*
X123031681Y-59400667D01*
X123909036Y-59400667D01*
X124786391Y-59400667D01*
X124931979Y-59845167D01*
G37*
G36*
X151548378Y-59234990D02*
G01*
X151837668Y-59244869D01*
X152018873Y-59259337D01*
X152062666Y-59272006D01*
X152030605Y-59359816D01*
X151942283Y-59574656D01*
X151809494Y-59888502D01*
X151644031Y-60273327D01*
X151554951Y-60478506D01*
X151377499Y-60889962D01*
X151227053Y-61246394D01*
X151115479Y-61519086D01*
X151054645Y-61679323D01*
X151046951Y-61707856D01*
X151129809Y-61716161D01*
X151371371Y-61724116D01*
X151761012Y-61731653D01*
X152288103Y-61738704D01*
X152942016Y-61745200D01*
X153712124Y-61751074D01*
X154587799Y-61756258D01*
X155558414Y-61760684D01*
X156613340Y-61764284D01*
X157741951Y-61766989D01*
X158933618Y-61768733D01*
X160177715Y-61769447D01*
X160677500Y-61769432D01*
X161979357Y-61769376D01*
X163259772Y-61769722D01*
X164505477Y-61770445D01*
X165703206Y-61771520D01*
X166839692Y-61772923D01*
X167901668Y-61774630D01*
X168875869Y-61776616D01*
X169749027Y-61778856D01*
X170507875Y-61781326D01*
X171139147Y-61784002D01*
X171629577Y-61786859D01*
X171965897Y-61789873D01*
X172001666Y-61790329D01*
X172616405Y-61796208D01*
X173090444Y-61794029D01*
X173452294Y-61782177D01*
X173730466Y-61759035D01*
X173953472Y-61722991D01*
X174149822Y-61672429D01*
X174164922Y-61667804D01*
X174546233Y-61506253D01*
X175000183Y-61244473D01*
X175487033Y-60908908D01*
X175967043Y-60525998D01*
X176214538Y-60304044D01*
X176617411Y-59925731D01*
X176953352Y-60318749D01*
X177289293Y-60711766D01*
X176849705Y-61156883D01*
X176410117Y-61602000D01*
X177217966Y-61602000D01*
X177600713Y-61605634D01*
X177853030Y-61621596D01*
X178013758Y-61657476D01*
X178121735Y-61720865D01*
X178192759Y-61792500D01*
X178357946Y-61982426D01*
X178445484Y-62109218D01*
X178437634Y-62186559D01*
X178316654Y-62228130D01*
X178064805Y-62247610D01*
X177664347Y-62258682D01*
X177585810Y-62260575D01*
X176752373Y-62313187D01*
X176034760Y-62437500D01*
X175394264Y-62649732D01*
X174792179Y-62966105D01*
X174189798Y-63402837D01*
X173592489Y-63933998D01*
X173293284Y-64227909D01*
X173107228Y-64436121D01*
X173017293Y-64581227D01*
X173006451Y-64685823D01*
X173012286Y-64703897D01*
X173062413Y-64872922D01*
X173124712Y-65139275D01*
X173165408Y-65340083D01*
X173205890Y-65994390D01*
X173084300Y-66637287D01*
X172807710Y-67249329D01*
X172383190Y-67811067D01*
X172201149Y-67992025D01*
X171876467Y-68269009D01*
X171580541Y-68455357D01*
X171239010Y-68594749D01*
X171099337Y-68639192D01*
X170461404Y-68765489D01*
X169832796Y-68764367D01*
X169261426Y-68636801D01*
X169166886Y-68599868D01*
X168990125Y-68533782D01*
X168862203Y-68532681D01*
X168723724Y-68613136D01*
X168531886Y-68777018D01*
X168212093Y-69065124D01*
X167817309Y-69428550D01*
X167366371Y-69849248D01*
X166878117Y-70309168D01*
X166371381Y-70790264D01*
X165865000Y-71274485D01*
X165377810Y-71743785D01*
X164928649Y-72180115D01*
X164536351Y-72565426D01*
X164219754Y-72881670D01*
X163997693Y-73110798D01*
X163921308Y-73194730D01*
X163460949Y-73726605D01*
X169339974Y-73696821D01*
X175219000Y-73667038D01*
X175574533Y-73400085D01*
X176129523Y-73084415D01*
X176760274Y-72897262D01*
X177426420Y-72843904D01*
X178087597Y-72929616D01*
X178411695Y-73029259D01*
X178707718Y-73154018D01*
X178963620Y-73285045D01*
X179084250Y-73364102D01*
X179252955Y-73462722D01*
X179444409Y-73465906D01*
X179574555Y-73435865D01*
X180154013Y-73235794D01*
X180849419Y-72918328D01*
X181656749Y-72485575D01*
X182571978Y-71939641D01*
X183215304Y-71529989D01*
X183605144Y-71278631D01*
X183878853Y-71110872D01*
X184060817Y-71015822D01*
X184175423Y-70982589D01*
X184247059Y-71000284D01*
X184293359Y-71048565D01*
X184331914Y-71097364D01*
X184356325Y-71139156D01*
X184351847Y-71184053D01*
X184303731Y-71242167D01*
X184197231Y-71323612D01*
X184017598Y-71438499D01*
X183750085Y-71596940D01*
X183379944Y-71809050D01*
X182892429Y-72084938D01*
X182272791Y-72434720D01*
X182267500Y-72437708D01*
X181763035Y-72725481D01*
X181311318Y-72988563D01*
X180932207Y-73214948D01*
X180645561Y-73392625D01*
X180471239Y-73509586D01*
X180426000Y-73551290D01*
X180507235Y-73569572D01*
X180737221Y-73586192D01*
X181095381Y-73600561D01*
X181561135Y-73612091D01*
X182113905Y-73620196D01*
X182733112Y-73624286D01*
X182994743Y-73624667D01*
X185563486Y-73624667D01*
X185661743Y-73840317D01*
X185733627Y-74011343D01*
X185760000Y-74097388D01*
X185678795Y-74105874D01*
X185448915Y-74110038D01*
X185090958Y-74110014D01*
X184625523Y-74105938D01*
X184073209Y-74097946D01*
X183454614Y-74086172D01*
X183198833Y-74080561D01*
X182535823Y-74067756D01*
X181909456Y-74059942D01*
X181344850Y-74057100D01*
X180867125Y-74059215D01*
X180501400Y-74066271D01*
X180272795Y-74078252D01*
X180236817Y-74082480D01*
X179999368Y-74123243D01*
X179899120Y-74168407D01*
X179905418Y-74244696D01*
X179955025Y-74328157D01*
X180042897Y-74509841D01*
X180146169Y-74786437D01*
X180218091Y-75015552D01*
X180323699Y-75676882D01*
X180274860Y-76339347D01*
X180084083Y-76975828D01*
X179763881Y-77559206D01*
X179326764Y-78062362D01*
X178785245Y-78458177D01*
X178581725Y-78562488D01*
X178349830Y-78653886D01*
X178103103Y-78710114D01*
X177791118Y-78738637D01*
X177363443Y-78746918D01*
X177335666Y-78746935D01*
X176929224Y-78742223D01*
X176640853Y-78721949D01*
X176419405Y-78676793D01*
X176213732Y-78597438D01*
X176041460Y-78511135D01*
X175449908Y-78128055D01*
X174989361Y-77676258D01*
X174744869Y-77309160D01*
X174615256Y-77091268D01*
X174505909Y-76952748D01*
X174463768Y-76926667D01*
X174374378Y-76967707D01*
X174156344Y-77084237D01*
X173827258Y-77266374D01*
X173404710Y-77504233D01*
X172906293Y-77787931D01*
X172349598Y-78107585D01*
X171923622Y-78353839D01*
X170704506Y-79058162D01*
X169628155Y-79674955D01*
X168694881Y-80204043D01*
X167904993Y-80645253D01*
X167258800Y-80998410D01*
X166756612Y-81263340D01*
X166646500Y-81319345D01*
X166384238Y-81460812D01*
X166194942Y-81580893D01*
X166117567Y-81654731D01*
X166117333Y-81656975D01*
X166199183Y-81679681D01*
X166433476Y-81702983D01*
X166803325Y-81726440D01*
X167291841Y-81749609D01*
X167882136Y-81772048D01*
X168557325Y-81793315D01*
X169300519Y-81812967D01*
X170094830Y-81830562D01*
X170923371Y-81845659D01*
X171769254Y-81857815D01*
X172615593Y-81866588D01*
X173445499Y-81871536D01*
X174242085Y-81872216D01*
X174330000Y-81872003D01*
X175434241Y-81864375D01*
X176396568Y-81844235D01*
X177244269Y-81805805D01*
X178004628Y-81743305D01*
X178704931Y-81650956D01*
X179372465Y-81522980D01*
X180034515Y-81353598D01*
X180718368Y-81137031D01*
X181451310Y-80867499D01*
X182260626Y-80539225D01*
X183173602Y-80146429D01*
X183813868Y-79863423D01*
X184522229Y-79552641D01*
X185193359Y-79266548D01*
X185810398Y-79011699D01*
X186356484Y-78794647D01*
X186814759Y-78621947D01*
X187168362Y-78500153D01*
X187400432Y-78435820D01*
X187492508Y-78433398D01*
X187533015Y-78548431D01*
X187538000Y-78615324D01*
X187466221Y-78716782D01*
X187245782Y-78846287D01*
X186869022Y-79008189D01*
X186797166Y-79036069D01*
X185691928Y-79458419D01*
X184655804Y-79850768D01*
X183703781Y-80207563D01*
X182850844Y-80523254D01*
X182111981Y-80792289D01*
X181502178Y-81009118D01*
X181082166Y-81153014D01*
X180686010Y-81289552D01*
X180355203Y-81412221D01*
X180119254Y-81509421D01*
X180007672Y-81569548D01*
X180002666Y-81577454D01*
X180084386Y-81592692D01*
X180317779Y-81609358D01*
X180685199Y-81626841D01*
X181168999Y-81644527D01*
X181751532Y-81661803D01*
X182415151Y-81678058D01*
X183142209Y-81692678D01*
X183495166Y-81698718D01*
X184601498Y-81717872D01*
X185548278Y-81737168D01*
X186345288Y-81757084D01*
X187002311Y-81778098D01*
X187529127Y-81800689D01*
X187935518Y-81825335D01*
X188231265Y-81852512D01*
X188426152Y-81882701D01*
X188529958Y-81916378D01*
X188554000Y-81945950D01*
X188470906Y-81967157D01*
X188221326Y-81982504D01*
X187804809Y-81991994D01*
X187220904Y-81995630D01*
X186469163Y-81993415D01*
X185549134Y-81985351D01*
X184460368Y-81971440D01*
X184341833Y-81969723D01*
X183292576Y-81955281D01*
X182395098Y-81945614D01*
X181631888Y-81941552D01*
X180985438Y-81943926D01*
X180438238Y-81953568D01*
X179972778Y-81971309D01*
X179571550Y-81997980D01*
X179217043Y-82034412D01*
X178891749Y-82081436D01*
X178578159Y-82139883D01*
X178258762Y-82210584D01*
X178013000Y-82270133D01*
X177674557Y-82354032D01*
X177383458Y-82425945D01*
X177191881Y-82472989D01*
X177166333Y-82479189D01*
X177126846Y-82470210D01*
X177218785Y-82401042D01*
X177309013Y-82348821D01*
X177514584Y-82225115D01*
X177648689Y-82124322D01*
X177666930Y-82103312D01*
X177592416Y-82090715D01*
X177360283Y-82079523D01*
X176982243Y-82069837D01*
X176470005Y-82061761D01*
X175835280Y-82055396D01*
X175089777Y-82050845D01*
X174245206Y-82048210D01*
X173313279Y-82047594D01*
X172305705Y-82049099D01*
X171682249Y-82051017D01*
X165651666Y-82072993D01*
X164932000Y-82324382D01*
X164588887Y-82444909D01*
X164291364Y-82550637D01*
X164087225Y-82624533D01*
X164043000Y-82641142D01*
X164010893Y-82632538D01*
X164097280Y-82544558D01*
X164252578Y-82420090D01*
X164631491Y-82133667D01*
X162813245Y-82088786D01*
X162262910Y-82074240D01*
X161878307Y-82061732D01*
X161655849Y-82050973D01*
X161591950Y-82041677D01*
X161683024Y-82033556D01*
X161925485Y-82026325D01*
X162011000Y-82024591D01*
X162508334Y-82008372D01*
X163037638Y-81980069D01*
X163523637Y-81944195D01*
X163789000Y-81918005D01*
X164468169Y-81827882D01*
X165063535Y-81716532D01*
X165607910Y-81570976D01*
X166134107Y-81378234D01*
X166674937Y-81125325D01*
X167263211Y-80799270D01*
X167931741Y-80387087D01*
X168358984Y-80110145D01*
X168905279Y-79758517D01*
X169481211Y-79402441D01*
X170108367Y-79029438D01*
X170808338Y-78627032D01*
X171602709Y-78182745D01*
X172513070Y-77684098D01*
X173186293Y-77320037D01*
X174370919Y-76682047D01*
X174374578Y-75894190D01*
X174386379Y-75459128D01*
X174422957Y-75136926D01*
X174493188Y-74871857D01*
X174565785Y-74693404D01*
X174670099Y-74460392D01*
X174738191Y-74301879D01*
X174753333Y-74260828D01*
X174671492Y-74250533D01*
X174437268Y-74240969D01*
X174067610Y-74232176D01*
X173579467Y-74224193D01*
X172989788Y-74217059D01*
X172315522Y-74210815D01*
X171573618Y-74205498D01*
X170781025Y-74201149D01*
X169954692Y-74197806D01*
X169111568Y-74195510D01*
X168268601Y-74194299D01*
X167442742Y-74194213D01*
X166650939Y-74195290D01*
X165910140Y-74197572D01*
X165237295Y-74201095D01*
X164649354Y-74205901D01*
X164163264Y-74212029D01*
X163795974Y-74219517D01*
X163564435Y-74228404D01*
X163496070Y-74234709D01*
X163004230Y-74368160D01*
X162515074Y-74599143D01*
X162008966Y-74940970D01*
X161466274Y-75406954D01*
X160867362Y-76010406D01*
X160850582Y-76028351D01*
X160367497Y-76545667D01*
X160363748Y-76222328D01*
X160373557Y-76071916D01*
X160419350Y-75927328D01*
X160520003Y-75758619D01*
X160694389Y-75535839D01*
X160961381Y-75229041D01*
X161057405Y-75121662D01*
X161754811Y-74344334D01*
X160866905Y-74302000D01*
X160469426Y-74280566D01*
X160210402Y-74256803D01*
X160059032Y-74223296D01*
X159984514Y-74172631D01*
X159956046Y-74097394D01*
X159953647Y-74082161D01*
X159952568Y-74001890D01*
X159996229Y-73947463D01*
X160113915Y-73910974D01*
X160334912Y-73884513D01*
X160688503Y-73860173D01*
X160800314Y-73853536D01*
X161390883Y-73802153D01*
X161897643Y-73713020D01*
X162349137Y-73570760D01*
X162773911Y-73359995D01*
X163200509Y-73065347D01*
X163657475Y-72671437D01*
X164173354Y-72162889D01*
X164424000Y-71901340D01*
X164789671Y-71519337D01*
X165239712Y-71055739D01*
X165737729Y-70547652D01*
X166247327Y-70032181D01*
X166732110Y-69546430D01*
X166804885Y-69474002D01*
X168212104Y-68075005D01*
X167959548Y-67780669D01*
X167777618Y-67532505D01*
X167585355Y-67215833D01*
X167483663Y-67020667D01*
X167370162Y-66757388D01*
X167302451Y-66511313D01*
X167269522Y-66221933D01*
X167260368Y-65828735D01*
X167260333Y-65793000D01*
X167268311Y-65387764D01*
X167299734Y-65089581D01*
X167365839Y-64836609D01*
X167477861Y-64567008D01*
X167486408Y-64548697D01*
X167852882Y-63950122D01*
X168321743Y-63471644D01*
X168870777Y-63118690D01*
X169477771Y-62896693D01*
X170120509Y-62811081D01*
X170776778Y-62867286D01*
X171424363Y-63070737D01*
X172041050Y-63426864D01*
X172049706Y-63433216D01*
X172297300Y-63612286D01*
X172487292Y-63743707D01*
X172583213Y-63802359D01*
X172587049Y-63803334D01*
X172657646Y-63743159D01*
X172804624Y-63585922D01*
X172998289Y-63366554D01*
X173208950Y-63119987D01*
X173406914Y-62881153D01*
X173562489Y-62684983D01*
X173645983Y-62566408D01*
X173652681Y-62549677D01*
X173569845Y-62541741D01*
X173328647Y-62534109D01*
X172940057Y-62526854D01*
X172415047Y-62520047D01*
X171764588Y-62513761D01*
X170999651Y-62508068D01*
X170131206Y-62503040D01*
X169170226Y-62498748D01*
X168127679Y-62495264D01*
X167014538Y-62492661D01*
X165841774Y-62491011D01*
X164620358Y-62490385D01*
X164614514Y-62490385D01*
X163353119Y-62489600D01*
X162113252Y-62487484D01*
X160908645Y-62484131D01*
X159753028Y-62479637D01*
X158660131Y-62474097D01*
X157643683Y-62467606D01*
X156717416Y-62460260D01*
X155895059Y-62452154D01*
X155190342Y-62443383D01*
X154616995Y-62434042D01*
X154188750Y-62424228D01*
X153967666Y-62416460D01*
X153220132Y-62389813D01*
X152614673Y-62386863D01*
X152125375Y-62410004D01*
X151726324Y-62461633D01*
X151391608Y-62544144D01*
X151095313Y-62659932D01*
X151038564Y-62687205D01*
X150730345Y-62839700D01*
X149746187Y-62369017D01*
X149287194Y-62143832D01*
X148976713Y-61977178D01*
X148806560Y-61863401D01*
X148768548Y-61796845D01*
X148854495Y-61771855D01*
X148881170Y-61771333D01*
X149104440Y-61692635D01*
X149346941Y-61472995D01*
X149592664Y-61137101D01*
X149825602Y-60709637D01*
X150029747Y-60215288D01*
X150157713Y-59802834D01*
X150309799Y-59231334D01*
X151186232Y-59231334D01*
X151548378Y-59234990D01*
G37*
G36*
X180118413Y-108779117D02*
G01*
X180796283Y-108879412D01*
X181388591Y-109110223D01*
X181934788Y-109487846D01*
X182024515Y-109566569D01*
X182346952Y-109857870D01*
X184074642Y-109777147D01*
X184735049Y-109750181D01*
X185465726Y-109726809D01*
X186202356Y-109708681D01*
X186880621Y-109697444D01*
X187297240Y-109694545D01*
X187832509Y-109694590D01*
X188220966Y-109698007D01*
X188485130Y-109707395D01*
X188647521Y-109725353D01*
X188730658Y-109754482D01*
X188757060Y-109797381D01*
X188749248Y-109856649D01*
X188747865Y-109862000D01*
X188714381Y-109938888D01*
X188641029Y-109988055D01*
X188495713Y-110015417D01*
X188246340Y-110026893D01*
X187860815Y-110028400D01*
X187845625Y-110028349D01*
X187490559Y-110023636D01*
X187008738Y-110012271D01*
X186442551Y-109995521D01*
X185834391Y-109974649D01*
X185226650Y-109950920D01*
X185167333Y-109948430D01*
X184594631Y-109927506D01*
X184047872Y-109913553D01*
X183560908Y-109906976D01*
X183167592Y-109908180D01*
X182901778Y-109917567D01*
X182862368Y-109920913D01*
X182377737Y-109970329D01*
X182501993Y-110191331D01*
X182610288Y-110405050D01*
X182738625Y-110686552D01*
X182789811Y-110806791D01*
X182958758Y-111112377D01*
X183143673Y-111258394D01*
X183150186Y-111260453D01*
X183292741Y-111308972D01*
X183562116Y-111405700D01*
X183933324Y-111541302D01*
X184381381Y-111706444D01*
X184881301Y-111891792D01*
X185408100Y-112088010D01*
X185936792Y-112285765D01*
X186442392Y-112475722D01*
X186899916Y-112648546D01*
X187284378Y-112794903D01*
X187570793Y-112905459D01*
X187734176Y-112970878D01*
X187760528Y-112982889D01*
X187813820Y-113101871D01*
X187787261Y-113219829D01*
X187759329Y-113278183D01*
X187713520Y-113312235D01*
X187629341Y-113316368D01*
X187486298Y-113284961D01*
X187263897Y-113212394D01*
X186941644Y-113093048D01*
X186499047Y-112921303D01*
X186040732Y-112740898D01*
X185489105Y-112522086D01*
X184942393Y-112303017D01*
X184437770Y-112098748D01*
X184012413Y-111924338D01*
X183703496Y-111794842D01*
X183678136Y-111783950D01*
X182993273Y-111488763D01*
X182905821Y-112051215D01*
X182721177Y-112782482D01*
X182410693Y-113401501D01*
X181971636Y-113912294D01*
X181401272Y-114318881D01*
X181342602Y-114350928D01*
X181036741Y-114501648D01*
X180769555Y-114593390D01*
X180470917Y-114644014D01*
X180087333Y-114670610D01*
X179677622Y-114679649D01*
X179365930Y-114655774D01*
X179082649Y-114590067D01*
X178861805Y-114513586D01*
X178347648Y-114243818D01*
X177862506Y-113850683D01*
X177455008Y-113379010D01*
X177236859Y-113015677D01*
X177034471Y-112426093D01*
X176959448Y-111779527D01*
X177014807Y-111133938D01*
X177118990Y-110751000D01*
X177223554Y-110456843D01*
X177310233Y-110208324D01*
X177353019Y-110081290D01*
X177364689Y-110024686D01*
X177343271Y-109984419D01*
X177266838Y-109959066D01*
X177113465Y-109947205D01*
X176861227Y-109947411D01*
X176488198Y-109958263D01*
X175972453Y-109978337D01*
X175846249Y-109983497D01*
X175424190Y-109998404D01*
X174859716Y-110014690D01*
X174179733Y-110031767D01*
X173411150Y-110049046D01*
X172580873Y-110065937D01*
X171715810Y-110081852D01*
X170842866Y-110096202D01*
X170393000Y-110102874D01*
X169594338Y-110115734D01*
X168846027Y-110130650D01*
X168165421Y-110147069D01*
X167569876Y-110164439D01*
X167076744Y-110182210D01*
X166703382Y-110199828D01*
X166467143Y-110216743D01*
X166386985Y-110230238D01*
X166407553Y-110290421D01*
X166565748Y-110412126D01*
X166865666Y-110597909D01*
X167311403Y-110850328D01*
X167828200Y-111129967D01*
X168329350Y-111400113D01*
X168932915Y-111730300D01*
X169618828Y-112109179D01*
X170367023Y-112525403D01*
X171157432Y-112967624D01*
X171969989Y-113424493D01*
X172784627Y-113884662D01*
X173581279Y-114336783D01*
X174339879Y-114769508D01*
X175040360Y-115171489D01*
X175662654Y-115531378D01*
X176186696Y-115837826D01*
X176592418Y-116079485D01*
X176743000Y-116171459D01*
X177397527Y-116566790D01*
X177984175Y-116894070D01*
X178527547Y-117158441D01*
X179052246Y-117365046D01*
X179582877Y-117519026D01*
X180144041Y-117625524D01*
X180760343Y-117689683D01*
X181456385Y-117716643D01*
X182256772Y-117711548D01*
X183186106Y-117679539D01*
X183815222Y-117649586D01*
X184407476Y-117620984D01*
X184942315Y-117598073D01*
X185397010Y-117581590D01*
X185748833Y-117572272D01*
X185975056Y-117570854D01*
X186052638Y-117577083D01*
X186064783Y-117679839D01*
X186043100Y-117803198D01*
X186023229Y-117863774D01*
X185985331Y-117909596D01*
X185908123Y-117942723D01*
X185770325Y-117965213D01*
X185550658Y-117979127D01*
X185227839Y-117986523D01*
X184780590Y-117989461D01*
X184187629Y-117989999D01*
X184112587Y-117990000D01*
X183363138Y-117996679D01*
X182670380Y-118015770D01*
X182053642Y-118045857D01*
X181532247Y-118085523D01*
X181125522Y-118133351D01*
X180852792Y-118187925D01*
X180742305Y-118237077D01*
X180796142Y-118291946D01*
X180980507Y-118416678D01*
X181277151Y-118600275D01*
X181667824Y-118831738D01*
X182134276Y-119100069D01*
X182658257Y-119394270D01*
X182710805Y-119423409D01*
X183242954Y-119720227D01*
X183723095Y-119991974D01*
X184132225Y-120227577D01*
X184451343Y-120415961D01*
X184661446Y-120546053D01*
X184743532Y-120606778D01*
X184744000Y-120608299D01*
X184699238Y-120716310D01*
X184631704Y-120820542D01*
X184583027Y-120869215D01*
X184514394Y-120883832D01*
X184405045Y-120854460D01*
X184234217Y-120771161D01*
X183981150Y-120624003D01*
X183625082Y-120403048D01*
X183213537Y-120141896D01*
X182306144Y-119579823D01*
X181508621Y-119121433D01*
X180804238Y-118757951D01*
X180176264Y-118480608D01*
X179747256Y-118324470D01*
X179113666Y-118117000D01*
X174033666Y-118149654D01*
X173020057Y-118156894D01*
X171976772Y-118165683D01*
X170930460Y-118175712D01*
X169907770Y-118186674D01*
X168935352Y-118198258D01*
X168039855Y-118210156D01*
X167247930Y-118222060D01*
X166586224Y-118233661D01*
X166329000Y-118238894D01*
X163704333Y-118295482D01*
X164805000Y-119380736D01*
X165106615Y-119672643D01*
X165514617Y-120059263D01*
X166009271Y-120522314D01*
X166570842Y-121043514D01*
X167179597Y-121604583D01*
X167815801Y-122187239D01*
X168459720Y-122773202D01*
X168784333Y-123067066D01*
X169438167Y-123660871D01*
X170105301Y-124272296D01*
X170763993Y-124881041D01*
X171392500Y-125466803D01*
X171969083Y-126009283D01*
X172471998Y-126488180D01*
X172879506Y-126883193D01*
X173017666Y-127019887D01*
X173629814Y-127618598D01*
X174153916Y-128102206D01*
X174609888Y-128486064D01*
X175017644Y-128785523D01*
X175397098Y-129015936D01*
X175768165Y-129192655D01*
X175907313Y-129247503D01*
X176262072Y-129348438D01*
X176731551Y-129438096D01*
X177261209Y-129510168D01*
X177796506Y-129558342D01*
X178282901Y-129576309D01*
X178626833Y-129562156D01*
X178874469Y-129544091D01*
X179035837Y-129546032D01*
X179071333Y-129558767D01*
X179024616Y-129645646D01*
X178907203Y-129814375D01*
X178849617Y-129891316D01*
X178627902Y-130182000D01*
X177685451Y-130183600D01*
X176743000Y-130185200D01*
X177262622Y-130690523D01*
X177782245Y-131195845D01*
X177445929Y-131577920D01*
X177109612Y-131959996D01*
X176434268Y-131382066D01*
X175897306Y-130939567D01*
X175426047Y-130599616D01*
X174983881Y-130349338D01*
X174534196Y-130175861D01*
X174040381Y-130066309D01*
X173465826Y-130007810D01*
X172773919Y-129987488D01*
X172467333Y-129987119D01*
X171909001Y-129995499D01*
X171326388Y-130014728D01*
X170776884Y-130042251D01*
X170317879Y-130075514D01*
X170181333Y-130088888D01*
X169931265Y-130106642D01*
X169516265Y-130123906D01*
X168940730Y-130140614D01*
X168209061Y-130156697D01*
X167325657Y-130172090D01*
X166294918Y-130186724D01*
X165121243Y-130200533D01*
X163809031Y-130213450D01*
X162362683Y-130225407D01*
X160786597Y-130236337D01*
X160338833Y-130239107D01*
X159123061Y-130246937D01*
X157955941Y-130255418D01*
X156848495Y-130264419D01*
X155811746Y-130273806D01*
X154856717Y-130283447D01*
X153994430Y-130293210D01*
X153235908Y-130302963D01*
X152592173Y-130312574D01*
X152074248Y-130321909D01*
X151693155Y-130330838D01*
X151459918Y-130339227D01*
X151385333Y-130346565D01*
X151418476Y-130438750D01*
X151509630Y-130656195D01*
X151646384Y-130970165D01*
X151816328Y-131351924D01*
X151893333Y-131522729D01*
X152073157Y-131922650D01*
X152225007Y-132265105D01*
X152336518Y-132521835D01*
X152395324Y-132664582D01*
X152401333Y-132683731D01*
X152323831Y-132702634D01*
X152119951Y-132716311D01*
X151832629Y-132721976D01*
X151811439Y-132722000D01*
X151221545Y-132722000D01*
X151197606Y-133674500D01*
X151173666Y-134627000D01*
X150857378Y-133406037D01*
X150620028Y-132567900D01*
X150379829Y-131884646D01*
X150129299Y-131341887D01*
X149860956Y-130925236D01*
X149567315Y-130620305D01*
X149322081Y-130454126D01*
X149245155Y-130419440D01*
X149141986Y-130390419D01*
X148997236Y-130366428D01*
X148795566Y-130346831D01*
X148521636Y-130330992D01*
X148160109Y-130318275D01*
X147695646Y-130308045D01*
X147112908Y-130299667D01*
X146396556Y-130292504D01*
X145531252Y-130285920D01*
X145211673Y-130283775D01*
X141366346Y-130258550D01*
X142203310Y-129881608D01*
X143040274Y-129504667D01*
X146239137Y-129504667D01*
X146956290Y-129502974D01*
X147617373Y-129498149D01*
X148203945Y-129490576D01*
X148697565Y-129480636D01*
X149079793Y-129468714D01*
X149332186Y-129455190D01*
X149436305Y-129440449D01*
X149438000Y-129438282D01*
X149412333Y-129339820D01*
X149341205Y-129108540D01*
X149233424Y-128772023D01*
X149097798Y-128357852D01*
X148976433Y-127992915D01*
X148514866Y-126613934D01*
X148807099Y-126492967D01*
X149096796Y-126373034D01*
X149395342Y-126249416D01*
X149406006Y-126245000D01*
X149607385Y-126164203D01*
X149728476Y-126120520D01*
X149739968Y-126118000D01*
X149773951Y-126193836D01*
X149846813Y-126400719D01*
X149948092Y-126707708D01*
X150067327Y-127083865D01*
X150076339Y-127112834D01*
X150339767Y-127882981D01*
X150602378Y-128496657D01*
X150862154Y-128949836D01*
X151117077Y-129238493D01*
X151156547Y-129268621D01*
X151511381Y-129444463D01*
X152013292Y-129570155D01*
X152665115Y-129645864D01*
X153469684Y-129671756D01*
X154429837Y-129648000D01*
X155548408Y-129574763D01*
X155872666Y-129547000D01*
X156278376Y-129515917D01*
X156751995Y-129489793D01*
X157307610Y-129468343D01*
X157959311Y-129451280D01*
X158721184Y-129438316D01*
X159607317Y-129429166D01*
X160631799Y-129423543D01*
X161808717Y-129421158D01*
X162060615Y-129421046D01*
X163279312Y-129419557D01*
X164488324Y-129415741D01*
X165675900Y-129409773D01*
X166830286Y-129401831D01*
X167939728Y-129392090D01*
X168992473Y-129380727D01*
X169976767Y-129367918D01*
X170880858Y-129353839D01*
X171692990Y-129338667D01*
X172401412Y-129322579D01*
X172994369Y-129305749D01*
X173460109Y-129288355D01*
X173786877Y-129270574D01*
X173962920Y-129252581D01*
X173991333Y-129242059D01*
X173932228Y-129150815D01*
X173763910Y-128956357D01*
X173499874Y-128672164D01*
X173153613Y-128311713D01*
X172738621Y-127888481D01*
X172268394Y-127415946D01*
X171756424Y-126907584D01*
X171216207Y-126376874D01*
X170661237Y-125837292D01*
X170105008Y-125302317D01*
X169561014Y-124785426D01*
X169049101Y-124305993D01*
X168373699Y-123678720D01*
X167808459Y-123153237D01*
X167339507Y-122716057D01*
X166952970Y-122353693D01*
X166634974Y-122052657D01*
X166371646Y-121799461D01*
X166149111Y-121580619D01*
X165953496Y-121382644D01*
X165770927Y-121192047D01*
X165587530Y-120995342D01*
X165389433Y-120779042D01*
X165162760Y-120529658D01*
X165149057Y-120514570D01*
X164507760Y-119833596D01*
X163929100Y-119284462D01*
X163385524Y-118855693D01*
X162849478Y-118535813D01*
X162293408Y-118313348D01*
X161689758Y-118176821D01*
X161010976Y-118114758D01*
X160229507Y-118115684D01*
X159485431Y-118155909D01*
X158902303Y-118189752D01*
X158231065Y-118217574D01*
X157552909Y-118236583D01*
X156949029Y-118243985D01*
X156924264Y-118244000D01*
X155618666Y-118244000D01*
X155618666Y-117990000D01*
X155618666Y-117736000D01*
X158793666Y-117736000D01*
X159713890Y-117734026D01*
X160469735Y-117728010D01*
X161066109Y-117717813D01*
X161507923Y-117703294D01*
X161800084Y-117684315D01*
X161947503Y-117660735D01*
X161968666Y-117645647D01*
X161911174Y-117562388D01*
X161749952Y-117378261D01*
X161501883Y-117111254D01*
X161183848Y-116779354D01*
X160812728Y-116400548D01*
X160589313Y-116175941D01*
X159209960Y-114796588D01*
X158728422Y-114736423D01*
X158126128Y-114586048D01*
X157537894Y-114302754D01*
X157021742Y-113917155D01*
X156854342Y-113747692D01*
X156574840Y-113373797D01*
X156343364Y-112945736D01*
X156185459Y-112519604D01*
X156126668Y-112151497D01*
X156126666Y-112149650D01*
X156085923Y-111966342D01*
X155951347Y-111742371D01*
X155704419Y-111447949D01*
X155661000Y-111400677D01*
X155402189Y-111094612D01*
X155241526Y-110846521D01*
X155195333Y-110700243D01*
X155207343Y-110611401D01*
X155259249Y-110603270D01*
X155374867Y-110688795D01*
X155578012Y-110880924D01*
X155640071Y-110941998D01*
X156084809Y-111381212D01*
X156237108Y-110896773D01*
X156326441Y-110618563D01*
X156400272Y-110399101D01*
X156434425Y-110306500D01*
X156413880Y-110251442D01*
X156280552Y-110218058D01*
X156012536Y-110202722D01*
X155795055Y-110200667D01*
X155452630Y-110196255D01*
X155246493Y-110178268D01*
X155143725Y-110139581D01*
X155111404Y-110073069D01*
X155110472Y-110052500D01*
X155127116Y-109982847D01*
X155198216Y-109941474D01*
X155355184Y-109923478D01*
X155629437Y-109923959D01*
X155884009Y-109931806D01*
X156657740Y-109959278D01*
X157006036Y-109618603D01*
X157282451Y-109391481D01*
X157626858Y-109166031D01*
X157862333Y-109040797D01*
X158157659Y-108916135D01*
X158423979Y-108843887D01*
X158729739Y-108810833D01*
X159090000Y-108803667D01*
X159474728Y-108811433D01*
X159759088Y-108844426D01*
X160011705Y-108917190D01*
X160301207Y-109044266D01*
X160360000Y-109072793D01*
X160924607Y-109404913D01*
X161356601Y-109795190D01*
X161690904Y-110277170D01*
X161767888Y-110425221D01*
X161882498Y-110675888D01*
X161954358Y-110896598D01*
X161993199Y-111141064D01*
X162008755Y-111463000D01*
X162011000Y-111767000D01*
X162006351Y-112173316D01*
X161985839Y-112463433D01*
X161939620Y-112690377D01*
X161857845Y-112907174D01*
X161762750Y-113103927D01*
X161380925Y-113675493D01*
X160870176Y-114154944D01*
X160281256Y-114506096D01*
X159794046Y-114730334D01*
X161086486Y-115969742D01*
X161673165Y-116519802D01*
X162154117Y-116943110D01*
X162532672Y-117242456D01*
X162812159Y-117420626D01*
X162829963Y-117429545D01*
X163214800Y-117586518D01*
X163648152Y-117698758D01*
X164153850Y-117768477D01*
X164755728Y-117797885D01*
X165477621Y-117789195D01*
X166273861Y-117749096D01*
X166703986Y-117727893D01*
X167286196Y-117708709D01*
X168003253Y-117691795D01*
X168837918Y-117677402D01*
X169772954Y-117665779D01*
X170791122Y-117657178D01*
X171875182Y-117651851D01*
X173007898Y-117650046D01*
X173081166Y-117650057D01*
X174193721Y-117649671D01*
X175147347Y-117647790D01*
X175952446Y-117644207D01*
X176619418Y-117638713D01*
X177158664Y-117631101D01*
X177580583Y-117621161D01*
X177895577Y-117608686D01*
X178114046Y-117593469D01*
X178246391Y-117575300D01*
X178303011Y-117553971D01*
X178306860Y-117545500D01*
X178234773Y-117485475D01*
X178028125Y-117350160D01*
X177699945Y-117147277D01*
X177263265Y-116884544D01*
X176731114Y-116569681D01*
X176116523Y-116210408D01*
X175432521Y-115814445D01*
X174692140Y-115389512D01*
X174055272Y-115026667D01*
X173242508Y-114563917D01*
X172446637Y-114108517D01*
X171684848Y-113670453D01*
X170974328Y-113259709D01*
X170332267Y-112886267D01*
X169775853Y-112560113D01*
X169322275Y-112291231D01*
X168988721Y-112089604D01*
X168853820Y-112005364D01*
X168054540Y-111504252D01*
X167362477Y-111095260D01*
X166750086Y-110767970D01*
X166189825Y-110511968D01*
X165654151Y-110316834D01*
X165115520Y-110172154D01*
X164546390Y-110067511D01*
X163919217Y-109992487D01*
X163422961Y-109951444D01*
X162519000Y-109886508D01*
X163640833Y-109874254D01*
X164092816Y-109863377D01*
X164445924Y-109842840D01*
X164676924Y-109814605D01*
X164762585Y-109780634D01*
X164762666Y-109779508D01*
X164694743Y-109689102D01*
X164528455Y-109576360D01*
X164500798Y-109561598D01*
X164313255Y-109453138D01*
X164277456Y-109402610D01*
X164386088Y-109409863D01*
X164631837Y-109474743D01*
X164929797Y-109570587D01*
X165484967Y-109725057D01*
X166097543Y-109827485D01*
X166795472Y-109880204D01*
X167606700Y-109885548D01*
X168361000Y-109857018D01*
X168732749Y-109841898D01*
X169248981Y-109827684D01*
X169884846Y-109814727D01*
X170615494Y-109803380D01*
X171416075Y-109793995D01*
X172261739Y-109786924D01*
X173127636Y-109782518D01*
X173711169Y-109781229D01*
X174764858Y-109778362D01*
X175664388Y-109772004D01*
X176407212Y-109762210D01*
X176990784Y-109749037D01*
X177412559Y-109732543D01*
X177669989Y-109712783D01*
X177759974Y-109691090D01*
X177726977Y-109605264D01*
X177577879Y-109502192D01*
X177532137Y-109480440D01*
X177251000Y-109356032D01*
X177594885Y-109405621D01*
X177861790Y-109416771D01*
X178088782Y-109342531D01*
X178254554Y-109240912D01*
X178777609Y-108960001D01*
X179346205Y-108807603D01*
X179999798Y-108773944D01*
X180118413Y-108779117D01*
G37*
G36*
X117346673Y-108781441D02*
G01*
X117993496Y-108995522D01*
X118596893Y-109367783D01*
X118939806Y-109674532D01*
X119387278Y-110129662D01*
X119978125Y-110101665D01*
X120294152Y-110093260D01*
X120469088Y-110108341D01*
X120530075Y-110151112D01*
X120525486Y-110186425D01*
X120485613Y-110311128D01*
X120482000Y-110334592D01*
X120405524Y-110354247D01*
X120208813Y-110367104D01*
X120030444Y-110370000D01*
X119769772Y-110377646D01*
X119586288Y-110397272D01*
X119534670Y-110414218D01*
X119536185Y-110508080D01*
X119577566Y-110702074D01*
X119642172Y-110936704D01*
X119713363Y-111152473D01*
X119774500Y-111289886D01*
X119782756Y-111301244D01*
X119851806Y-111265602D01*
X119994960Y-111130294D01*
X120147773Y-110962578D01*
X120476946Y-110581667D01*
X120479473Y-110839205D01*
X120443690Y-111033489D01*
X120315280Y-111240233D01*
X120101000Y-111470667D01*
X119851714Y-111749644D01*
X119734416Y-111974587D01*
X119720000Y-112077786D01*
X119641870Y-112558503D01*
X119425832Y-113048160D01*
X119099409Y-113519563D01*
X118690125Y-113945520D01*
X118225506Y-114298836D01*
X117733074Y-114552318D01*
X117240354Y-114678774D01*
X117078029Y-114688000D01*
X116982605Y-114700803D01*
X116871681Y-114748231D01*
X116729451Y-114843816D01*
X116540111Y-115001090D01*
X116287859Y-115233583D01*
X115956890Y-115554828D01*
X115531399Y-115978354D01*
X115303205Y-116207602D01*
X114891556Y-116625290D01*
X114522645Y-117006104D01*
X114212511Y-117332957D01*
X113977196Y-117588757D01*
X113832739Y-117756415D01*
X113793333Y-117816269D01*
X113868101Y-117842558D01*
X114094594Y-117864127D01*
X114476093Y-117881070D01*
X115015879Y-117893480D01*
X115717235Y-117901450D01*
X116583443Y-117905075D01*
X116926000Y-117905334D01*
X120058666Y-117905334D01*
X120058666Y-118147690D01*
X120058666Y-118390047D01*
X119330781Y-118449107D01*
X119021172Y-118462211D01*
X118581360Y-118464375D01*
X118050081Y-118456249D01*
X117466067Y-118438486D01*
X116868053Y-118411738D01*
X116758519Y-118405831D01*
X115834524Y-118361905D01*
X115051178Y-118348458D01*
X114382725Y-118376047D01*
X113803410Y-118455229D01*
X113287479Y-118596561D01*
X112809174Y-118810599D01*
X112342742Y-119107900D01*
X111862427Y-119499021D01*
X111342473Y-119994518D01*
X110757125Y-120604949D01*
X110369443Y-121024624D01*
X110036388Y-121378097D01*
X109600894Y-121824961D01*
X109084817Y-122343610D01*
X108510013Y-122912438D01*
X107898339Y-123509838D01*
X107271651Y-124114206D01*
X106651805Y-124703934D01*
X106558121Y-124792290D01*
X105865161Y-125450247D01*
X105189020Y-126102185D01*
X104541868Y-126735689D01*
X103935875Y-127338342D01*
X103383210Y-127897727D01*
X102896043Y-128401428D01*
X102486544Y-128837028D01*
X102166883Y-129192111D01*
X101949229Y-129454261D01*
X101856398Y-129589334D01*
X101859369Y-129609632D01*
X101897698Y-129627680D01*
X101980483Y-129643608D01*
X102116822Y-129657543D01*
X102315812Y-129669615D01*
X102586551Y-129679953D01*
X102938137Y-129688686D01*
X103379668Y-129695942D01*
X103920242Y-129701852D01*
X104568956Y-129706542D01*
X105334908Y-129710144D01*
X106227197Y-129712784D01*
X107254920Y-129714593D01*
X108427174Y-129715700D01*
X109753058Y-129716233D01*
X110817163Y-129716334D01*
X112079094Y-129717041D01*
X113320258Y-129719098D01*
X114526838Y-129722411D01*
X115685017Y-129726883D01*
X116780980Y-129732418D01*
X117800909Y-129738921D01*
X118730989Y-129746295D01*
X119557403Y-129754446D01*
X120266335Y-129763278D01*
X120843969Y-129772695D01*
X121276488Y-129782600D01*
X121498000Y-129790323D01*
X122357121Y-129819267D01*
X123067680Y-129814621D01*
X123648919Y-129765516D01*
X124120077Y-129661086D01*
X124500396Y-129490463D01*
X124809114Y-129242781D01*
X125065473Y-128907171D01*
X125288713Y-128472767D01*
X125498075Y-127928702D01*
X125658019Y-127440697D01*
X125785998Y-127035375D01*
X125895882Y-126692705D01*
X125977907Y-126442729D01*
X126022313Y-126315488D01*
X126026815Y-126305768D01*
X126108373Y-126320996D01*
X126299467Y-126380182D01*
X126551722Y-126466145D01*
X126816763Y-126561705D01*
X127046214Y-126649680D01*
X127191701Y-126712891D01*
X127216528Y-126728307D01*
X127203871Y-126816390D01*
X127146884Y-127038179D01*
X127053309Y-127366253D01*
X126930889Y-127773192D01*
X126829873Y-128097598D01*
X126689028Y-128548454D01*
X126568186Y-128943945D01*
X126475887Y-129255411D01*
X126420675Y-129454193D01*
X126408666Y-129510836D01*
X126491202Y-129530290D01*
X126730305Y-129547500D01*
X127113222Y-129562165D01*
X127627199Y-129573979D01*
X128259482Y-129582642D01*
X128997316Y-129587849D01*
X129714039Y-129589334D01*
X130550209Y-129589606D01*
X131234438Y-129591001D01*
X131784117Y-129594387D01*
X132216638Y-129600634D01*
X132549393Y-129610609D01*
X132799772Y-129625182D01*
X132985169Y-129645220D01*
X133122974Y-129671592D01*
X133230580Y-129705166D01*
X133325377Y-129746811D01*
X133375872Y-129772196D01*
X133665034Y-129913703D01*
X134010403Y-130073431D01*
X134198000Y-130156407D01*
X134663666Y-130357756D01*
X132123666Y-130296421D01*
X131077751Y-130272017D01*
X130186678Y-130253441D01*
X129436051Y-130240920D01*
X128811471Y-130234681D01*
X128298541Y-130234954D01*
X127882863Y-130241966D01*
X127550039Y-130255944D01*
X127285671Y-130277116D01*
X127075362Y-130305711D01*
X126904714Y-130341956D01*
X126773792Y-130381084D01*
X126437079Y-130529228D01*
X126152142Y-130736808D01*
X125907172Y-131023274D01*
X125690361Y-131408078D01*
X125489900Y-131910672D01*
X125293980Y-132550507D01*
X125170096Y-133022724D01*
X125075453Y-133381827D01*
X124990547Y-133670319D01*
X124925820Y-133854676D01*
X124895383Y-133904654D01*
X124813281Y-133850787D01*
X124635499Y-133708045D01*
X124392029Y-133501043D01*
X124224736Y-133354321D01*
X123953307Y-133120116D01*
X123725902Y-132935905D01*
X123573716Y-132826333D01*
X123531477Y-132806667D01*
X123536876Y-132733994D01*
X123602135Y-132533819D01*
X123717298Y-132232912D01*
X123872404Y-131858040D01*
X123958574Y-131658649D01*
X124135225Y-131252425D01*
X124284722Y-130903201D01*
X124395118Y-130639320D01*
X124454465Y-130489121D01*
X124461333Y-130466103D01*
X124378491Y-130460357D01*
X124137263Y-130455344D01*
X123748593Y-130451084D01*
X123223428Y-130447596D01*
X122572712Y-130444900D01*
X121807390Y-130443015D01*
X120938408Y-130441960D01*
X119976711Y-130441756D01*
X118933245Y-130442420D01*
X117818954Y-130443974D01*
X116644784Y-130446436D01*
X115421680Y-130449826D01*
X115380833Y-130449954D01*
X114106824Y-130453145D01*
X112847712Y-130454780D01*
X111617883Y-130454921D01*
X110431720Y-130453631D01*
X109303609Y-130450970D01*
X108247935Y-130447003D01*
X107279081Y-130441790D01*
X106411433Y-130435394D01*
X105659376Y-130427878D01*
X105037295Y-130419302D01*
X104559573Y-130409731D01*
X104308595Y-130402086D01*
X103652729Y-130378444D01*
X103137992Y-130364341D01*
X102736410Y-130360514D01*
X102420007Y-130367701D01*
X102160808Y-130386639D01*
X101930837Y-130418065D01*
X101702121Y-130462716D01*
X101660451Y-130471875D01*
X101119518Y-130642182D01*
X100564990Y-130920804D01*
X99976257Y-131320384D01*
X99332707Y-131853563D01*
X99174681Y-131996503D01*
X98912987Y-132233734D01*
X98701068Y-132420552D01*
X98567398Y-132532140D01*
X98536443Y-132552667D01*
X98469724Y-132493140D01*
X98329004Y-132338642D01*
X98181211Y-132165880D01*
X97857897Y-131779093D01*
X98480782Y-131196224D01*
X99103666Y-130613355D01*
X97996591Y-130609344D01*
X97541829Y-130605898D01*
X97225006Y-130596236D01*
X97014734Y-130575565D01*
X96879625Y-130539094D01*
X96788291Y-130482030D01*
X96722574Y-130414834D01*
X96563278Y-130233192D01*
X96470296Y-130107156D01*
X96461307Y-130026405D01*
X96553991Y-129980617D01*
X96766028Y-129959471D01*
X97115098Y-129952646D01*
X97517996Y-129950485D01*
X98363784Y-129923126D01*
X99076565Y-129846153D01*
X99687672Y-129710768D01*
X100228440Y-129508174D01*
X100730202Y-129229573D01*
X101140678Y-128933370D01*
X101337777Y-128763525D01*
X101623558Y-128498776D01*
X101969501Y-128166446D01*
X102347092Y-127793855D01*
X102659666Y-127478125D01*
X102990063Y-127147841D01*
X103422152Y-126726993D01*
X103931867Y-126238412D01*
X104495142Y-125704932D01*
X105087911Y-125149383D01*
X105686108Y-124594600D01*
X106088535Y-124225015D01*
X107236703Y-123170465D01*
X108259878Y-122220526D01*
X109162660Y-121370819D01*
X109949650Y-120616963D01*
X110625450Y-119954578D01*
X111194659Y-119379284D01*
X111373341Y-119193728D01*
X112043097Y-118492457D01*
X105615715Y-118503726D01*
X104580092Y-118504816D01*
X103588421Y-118504452D01*
X102654524Y-118502726D01*
X101792222Y-118499729D01*
X101015337Y-118495552D01*
X100337689Y-118490285D01*
X99773100Y-118484020D01*
X99335392Y-118476847D01*
X99038385Y-118468858D01*
X98895901Y-118460143D01*
X98892000Y-118459494D01*
X98691037Y-118444469D01*
X98367427Y-118445315D01*
X97967012Y-118461041D01*
X97565096Y-118488213D01*
X96926065Y-118559720D01*
X96324363Y-118672119D01*
X95735958Y-118835431D01*
X95136816Y-119059677D01*
X94502902Y-119354879D01*
X93810184Y-119731057D01*
X93034627Y-120198234D01*
X92240129Y-120708591D01*
X91828691Y-120976796D01*
X91466297Y-121209408D01*
X91176465Y-121391626D01*
X90982712Y-121508647D01*
X90909608Y-121546000D01*
X90830771Y-121480905D01*
X90767975Y-121384094D01*
X90754354Y-121331386D01*
X90778463Y-121269890D01*
X90854951Y-121189812D01*
X90998465Y-121081361D01*
X91223653Y-120934744D01*
X91545163Y-120740167D01*
X91977642Y-120487839D01*
X92535738Y-120167967D01*
X92881662Y-119971002D01*
X93434568Y-119654395D01*
X93936563Y-119362699D01*
X94369547Y-119106774D01*
X94715418Y-118897475D01*
X94956073Y-118745660D01*
X95073412Y-118662188D01*
X95082000Y-118651241D01*
X95000597Y-118634956D01*
X94769440Y-118620053D01*
X94408106Y-118607004D01*
X93936170Y-118596284D01*
X93373211Y-118588365D01*
X92738804Y-118583719D01*
X92243571Y-118582667D01*
X89405142Y-118582667D01*
X89322571Y-118365488D01*
X89261655Y-118191455D01*
X89239999Y-118106024D01*
X89321391Y-118097714D01*
X89552563Y-118093374D01*
X89914013Y-118092888D01*
X90386238Y-118096135D01*
X90949734Y-118102999D01*
X91584998Y-118113359D01*
X92097500Y-118123368D01*
X93070249Y-118140596D01*
X93896146Y-118145388D01*
X94597479Y-118133369D01*
X95196536Y-118100165D01*
X95715606Y-118041398D01*
X96176977Y-117952694D01*
X96194384Y-117947667D01*
X97410333Y-117947667D01*
X103337000Y-117990864D01*
X104358619Y-117998488D01*
X105356930Y-118006275D01*
X106314787Y-118014073D01*
X107215045Y-118021725D01*
X108040558Y-118029077D01*
X108774181Y-118035975D01*
X109398770Y-118042264D01*
X109897179Y-118047789D01*
X110252263Y-118052395D01*
X110373943Y-118054364D01*
X110839581Y-118055491D01*
X111289405Y-118043594D01*
X111672496Y-118020805D01*
X111937934Y-117989254D01*
X111940277Y-117988816D01*
X112274232Y-117912638D01*
X112580961Y-117807696D01*
X112882619Y-117658920D01*
X113201359Y-117451243D01*
X113559336Y-117169596D01*
X113978704Y-116798910D01*
X114481618Y-116324117D01*
X114702639Y-116109953D01*
X115097533Y-115723375D01*
X115448576Y-115375900D01*
X115738524Y-115084910D01*
X115950132Y-114867792D01*
X116066158Y-114741930D01*
X116082991Y-114718332D01*
X116013877Y-114661986D01*
X115828361Y-114567242D01*
X115597018Y-114467244D01*
X115104338Y-114191918D01*
X114640965Y-113794827D01*
X114252418Y-113322762D01*
X113984216Y-112822515D01*
X113976042Y-112800991D01*
X113809333Y-112115339D01*
X113806406Y-111400791D01*
X113966717Y-110669327D01*
X114087289Y-110348834D01*
X114102201Y-110281080D01*
X114058906Y-110237811D01*
X113929390Y-110213673D01*
X113685638Y-110203312D01*
X113315558Y-110201362D01*
X112835647Y-110211906D01*
X112306032Y-110239274D01*
X111823712Y-110278120D01*
X111719000Y-110289328D01*
X111054661Y-110377080D01*
X110470908Y-110484884D01*
X109936295Y-110625270D01*
X109419378Y-110810771D01*
X108888712Y-111053915D01*
X108312852Y-111367235D01*
X107660353Y-111763260D01*
X107073537Y-112140534D01*
X106533770Y-112484696D01*
X105919325Y-112862540D01*
X105293448Y-113235983D01*
X104719385Y-113566940D01*
X104522333Y-113676753D01*
X103474274Y-114254114D01*
X102562150Y-114758412D01*
X101773015Y-115197256D01*
X101093923Y-115578257D01*
X100511928Y-115909025D01*
X100014084Y-116197171D01*
X99587444Y-116450306D01*
X99219064Y-116676038D01*
X98895998Y-116881980D01*
X98605298Y-117075741D01*
X98334020Y-117264931D01*
X98069217Y-117457162D01*
X97983942Y-117520405D01*
X97410333Y-117947667D01*
X96194384Y-117947667D01*
X96602938Y-117829678D01*
X97015778Y-117667973D01*
X97437785Y-117463205D01*
X97891247Y-117210998D01*
X98398453Y-116906976D01*
X98447798Y-116876740D01*
X99019868Y-116529264D01*
X99693775Y-116125816D01*
X100450455Y-115677385D01*
X101270848Y-115194957D01*
X102135890Y-114689523D01*
X103026519Y-114172069D01*
X103923672Y-113653585D01*
X104808287Y-113145059D01*
X105661302Y-112657479D01*
X106463653Y-112201833D01*
X107196279Y-111789109D01*
X107840116Y-111430297D01*
X108376103Y-111136385D01*
X108776833Y-110922701D01*
X109060310Y-110768138D01*
X109274475Y-110638165D01*
X109383691Y-110554881D01*
X109390666Y-110542085D01*
X109345853Y-110525831D01*
X109206390Y-110509414D01*
X108964743Y-110492585D01*
X108613380Y-110475093D01*
X108144765Y-110456689D01*
X107551366Y-110437121D01*
X106825647Y-110416141D01*
X105960076Y-110393497D01*
X104947118Y-110368940D01*
X103779240Y-110342219D01*
X102575000Y-110315802D01*
X101905389Y-110306050D01*
X101213165Y-110304400D01*
X100520081Y-110310118D01*
X99847892Y-110322470D01*
X99218351Y-110340719D01*
X98653212Y-110364132D01*
X98174229Y-110391972D01*
X97803156Y-110423506D01*
X97561747Y-110457998D01*
X97475685Y-110488093D01*
X97484830Y-110577769D01*
X97539056Y-110782630D01*
X97626625Y-111058342D01*
X97626719Y-111058618D01*
X97773751Y-111741192D01*
X97761966Y-112417022D01*
X97601139Y-113063534D01*
X97301045Y-113658152D01*
X96871458Y-114178302D01*
X96322153Y-114601410D01*
X96023494Y-114761223D01*
X95755578Y-114874426D01*
X95507608Y-114941556D01*
X95218433Y-114973461D01*
X94826905Y-114980992D01*
X94785666Y-114980851D01*
X94381412Y-114971093D01*
X94085420Y-114938639D01*
X93837000Y-114872156D01*
X93575461Y-114760308D01*
X93556938Y-114751380D01*
X93218708Y-114553571D01*
X92875414Y-114300572D01*
X92719926Y-114162196D01*
X92462581Y-113860379D01*
X92222371Y-113492622D01*
X92025588Y-113108791D01*
X91898527Y-112758755D01*
X91864733Y-112540292D01*
X91864345Y-112439710D01*
X91848951Y-112373292D01*
X91797114Y-112345999D01*
X91687394Y-112362791D01*
X91498354Y-112428629D01*
X91208556Y-112548471D01*
X90796560Y-112727280D01*
X90504459Y-112855025D01*
X90086248Y-113032445D01*
X89624294Y-113219555D01*
X89148522Y-113405234D01*
X88688856Y-113578358D01*
X88275222Y-113727805D01*
X87937543Y-113842450D01*
X87705746Y-113911173D01*
X87623139Y-113926000D01*
X87550757Y-113866806D01*
X87555436Y-113737547D01*
X87622841Y-113610709D01*
X87694833Y-113563497D01*
X87812418Y-113521475D01*
X88064176Y-113426529D01*
X88426679Y-113287666D01*
X88876497Y-113113892D01*
X89390201Y-112914213D01*
X89790333Y-112757951D01*
X91737666Y-111995992D01*
X91808029Y-111669829D01*
X91883837Y-111385302D01*
X91990922Y-111056981D01*
X92033579Y-110941500D01*
X92118977Y-110713134D01*
X92168939Y-110565583D01*
X92174882Y-110535414D01*
X92090120Y-110532312D01*
X91855976Y-110525316D01*
X91492343Y-110514979D01*
X91019112Y-110501856D01*
X90456179Y-110486499D01*
X89823434Y-110469463D01*
X89378076Y-110457591D01*
X88509838Y-110432081D01*
X87805031Y-110405875D01*
X87257751Y-110378618D01*
X86862096Y-110349955D01*
X86612163Y-110319532D01*
X86502049Y-110286993D01*
X86499409Y-110284611D01*
X86512421Y-110257496D01*
X86617711Y-110236359D01*
X86827105Y-110220910D01*
X87152432Y-110210860D01*
X87605519Y-110205922D01*
X88198192Y-110205805D01*
X88942278Y-110210222D01*
X89384697Y-110214134D01*
X92365728Y-110242732D01*
X92729031Y-109887330D01*
X93271080Y-109469381D01*
X93880754Y-109193223D01*
X94531136Y-109060164D01*
X95195305Y-109071512D01*
X95846343Y-109228575D01*
X96457331Y-109532663D01*
X96683658Y-109695106D01*
X97114665Y-110035797D01*
X97643499Y-109902105D01*
X97948475Y-109825379D01*
X98206936Y-109761011D01*
X98341666Y-109728067D01*
X98369524Y-109740092D01*
X98268718Y-109812497D01*
X98108833Y-109903484D01*
X97885870Y-110028715D01*
X97739833Y-110121503D01*
X97706666Y-110152474D01*
X97789086Y-110157644D01*
X98027360Y-110161919D01*
X98408014Y-110165277D01*
X98917571Y-110167697D01*
X99542556Y-110169156D01*
X100269492Y-110169632D01*
X101084903Y-110169105D01*
X101975314Y-110167551D01*
X102927248Y-110164949D01*
X103696833Y-110162205D01*
X104888333Y-110157490D01*
X105923673Y-110152743D01*
X106816026Y-110147060D01*
X107578563Y-110139544D01*
X108224456Y-110129292D01*
X108766878Y-110115404D01*
X109218999Y-110096980D01*
X109593991Y-110073120D01*
X109905028Y-110042922D01*
X110165279Y-110005487D01*
X110387917Y-109959913D01*
X110586114Y-109905301D01*
X110773042Y-109840750D01*
X110961873Y-109765359D01*
X111165777Y-109678228D01*
X111238994Y-109646583D01*
X111488348Y-109541608D01*
X111599689Y-109504685D01*
X111589047Y-109533542D01*
X111492728Y-109610619D01*
X111262316Y-109782977D01*
X111100693Y-109910602D01*
X111021672Y-110000210D01*
X111039065Y-110058516D01*
X111166685Y-110092233D01*
X111418345Y-110108077D01*
X111807858Y-110112762D01*
X112349037Y-110113003D01*
X112526570Y-110113183D01*
X114180808Y-110116000D01*
X114484887Y-109752224D01*
X114728988Y-109513985D01*
X115049423Y-109269990D01*
X115305728Y-109113017D01*
X115986780Y-108837715D01*
X116672431Y-108728014D01*
X117346673Y-108781441D01*
G37*
G04 #@! TD*
M02*
