G04 #@! TF.GenerationSoftware,KiCad,Pcbnew,8.0.5*
G04 #@! TF.CreationDate,2024-10-11T09:12:05-05:00*
G04 #@! TF.ProjectId,bsidesdfw badge 2024,62736964-6573-4646-9677-206261646765,rev?*
G04 #@! TF.SameCoordinates,Original*
G04 #@! TF.FileFunction,Copper,L1,Top*
G04 #@! TF.FilePolarity,Positive*
%FSLAX46Y46*%
G04 Gerber Fmt 4.6, Leading zero omitted, Abs format (unit mm)*
G04 Created by KiCad (PCBNEW 8.0.5) date 2024-10-11 09:12:05*
%MOMM*%
%LPD*%
G01*
G04 APERTURE LIST*
G04 Aperture macros list*
%AMHorizOval*
0 Thick line with rounded ends*
0 $1 width*
0 $2 $3 position (X,Y) of the first rounded end (center of the circle)*
0 $4 $5 position (X,Y) of the second rounded end (center of the circle)*
0 Add line between two ends*
20,1,$1,$2,$3,$4,$5,0*
0 Add two circle primitives to create the rounded ends*
1,1,$1,$2,$3*
1,1,$1,$4,$5*%
%AMRotRect*
0 Rectangle, with rotation*
0 The origin of the aperture is its center*
0 $1 length*
0 $2 width*
0 $3 Rotation angle, in degrees counterclockwise*
0 Add horizontal line*
21,1,$1,$2,0,0,$3*%
G04 Aperture macros list end*
G04 #@! TA.AperFunction,ComponentPad*
%ADD10C,2.400000*%
G04 #@! TD*
G04 #@! TA.AperFunction,ComponentPad*
%ADD11RotRect,1.300000X1.300000X320.000000*%
G04 #@! TD*
G04 #@! TA.AperFunction,ComponentPad*
%ADD12C,1.300000*%
G04 #@! TD*
G04 #@! TA.AperFunction,ComponentPad*
%ADD13C,2.490000*%
G04 #@! TD*
G04 #@! TA.AperFunction,ComponentPad*
%ADD14R,1.600000X1.600000*%
G04 #@! TD*
G04 #@! TA.AperFunction,ComponentPad*
%ADD15O,1.600000X1.600000*%
G04 #@! TD*
G04 #@! TA.AperFunction,ComponentPad*
%ADD16R,1.800000X1.800000*%
G04 #@! TD*
G04 #@! TA.AperFunction,ComponentPad*
%ADD17C,1.800000*%
G04 #@! TD*
G04 #@! TA.AperFunction,ComponentPad*
%ADD18R,1.130000X1.130000*%
G04 #@! TD*
G04 #@! TA.AperFunction,ComponentPad*
%ADD19C,1.130000*%
G04 #@! TD*
G04 #@! TA.AperFunction,ComponentPad*
%ADD20C,1.600000*%
G04 #@! TD*
G04 #@! TA.AperFunction,ComponentPad*
%ADD21HorizOval,1.600000X0.000000X0.000000X0.000000X0.000000X0*%
G04 #@! TD*
G04 #@! TA.AperFunction,ComponentPad*
%ADD22R,1.050000X1.500000*%
G04 #@! TD*
G04 #@! TA.AperFunction,ComponentPad*
%ADD23O,1.050000X1.500000*%
G04 #@! TD*
G04 #@! TA.AperFunction,ComponentPad*
%ADD24HorizOval,1.600000X0.000000X0.000000X0.000000X0.000000X0*%
G04 #@! TD*
G04 #@! TA.AperFunction,ComponentPad*
%ADD25R,1.200000X1.200000*%
G04 #@! TD*
G04 #@! TA.AperFunction,ComponentPad*
%ADD26C,1.200000*%
G04 #@! TD*
G04 #@! TA.AperFunction,ComponentPad*
%ADD27R,2.000000X2.000000*%
G04 #@! TD*
G04 #@! TA.AperFunction,ComponentPad*
%ADD28O,2.000000X2.000000*%
G04 #@! TD*
G04 #@! TA.AperFunction,ViaPad*
%ADD29C,0.600000*%
G04 #@! TD*
G04 #@! TA.AperFunction,Conductor*
%ADD30C,0.200000*%
G04 #@! TD*
G04 APERTURE END LIST*
D10*
G04 #@! TO.P,R2,1,1*
G04 #@! TO.N,Net-(U1-DIS)*
X125500000Y-97500000D03*
G04 #@! TO.P,R2,2,2*
G04 #@! TO.N,Net-(U1-THR)*
X128000000Y-87500000D03*
G04 #@! TO.P,R2,3,3*
G04 #@! TO.N,unconnected-(R2-Pad3)*
X130500000Y-97500000D03*
G04 #@! TD*
D11*
G04 #@! TO.P,SW1,1,B*
G04 #@! TO.N,Net-(BT1-+)*
X103000000Y-132500000D03*
D12*
G04 #@! TO.P,SW1,2,C*
G04 #@! TO.N,Net-(D14-A)*
X106064178Y-135071153D03*
G04 #@! TO.P,SW1,3,A*
G04 #@! TO.N,unconnected-(SW1-A-Pad3)*
X107596267Y-136356726D03*
G04 #@! TO.P,SW1,4*
G04 #@! TO.N,N/C*
X109128356Y-137642300D03*
D13*
G04 #@! TO.P,SW1,MH1*
X101353004Y-131118007D03*
G04 #@! TO.P,SW1,MH2*
X110775350Y-139024295D03*
G04 #@! TD*
D14*
G04 #@! TO.P,U1,1,GND*
G04 #@! TO.N,GND*
X134000000Y-110000000D03*
D15*
G04 #@! TO.P,U1,2,TR*
G04 #@! TO.N,Net-(U1-THR)*
X136540000Y-110000000D03*
G04 #@! TO.P,U1,3,Q*
G04 #@! TO.N,Net-(U1-Q)*
X139080000Y-110000000D03*
G04 #@! TO.P,U1,4,R*
G04 #@! TO.N,+6V*
X141620000Y-110000000D03*
G04 #@! TO.P,U1,5,CV*
G04 #@! TO.N,unconnected-(U1-CV-Pad5)*
X141620000Y-117620000D03*
G04 #@! TO.P,U1,6,THR*
G04 #@! TO.N,Net-(U1-THR)*
X139080000Y-117620000D03*
G04 #@! TO.P,U1,7,DIS*
G04 #@! TO.N,Net-(U1-DIS)*
X136540000Y-117620000D03*
G04 #@! TO.P,U1,8,VCC*
G04 #@! TO.N,+6V*
X134000000Y-117620000D03*
G04 #@! TD*
D16*
G04 #@! TO.P,D7,1,K*
G04 #@! TO.N,Net-(D1-K)*
X172960000Y-122500000D03*
D17*
G04 #@! TO.P,D7,2,A*
G04 #@! TO.N,Net-(D1-A)*
X175500000Y-122500000D03*
G04 #@! TD*
D18*
G04 #@! TO.P,U2,1,QB*
G04 #@! TO.N,Net-(D1-K)*
X167530000Y-101890000D03*
D19*
G04 #@! TO.P,U2,2,QC*
G04 #@! TO.N,Net-(D2-K)*
X167530000Y-99350000D03*
G04 #@! TO.P,U2,3,QD*
G04 #@! TO.N,Net-(D3-K)*
X167530000Y-96810000D03*
G04 #@! TO.P,U2,4,QE*
G04 #@! TO.N,Net-(D10-K)*
X167530000Y-94270000D03*
G04 #@! TO.P,U2,5,QF*
G04 #@! TO.N,Net-(D11-K)*
X167530000Y-91730000D03*
G04 #@! TO.P,U2,6,QG*
G04 #@! TO.N,Net-(D12-K)*
X167530000Y-89190000D03*
G04 #@! TO.P,U2,7,QH*
G04 #@! TO.N,Net-(D13-K)*
X167530000Y-86650000D03*
G04 #@! TO.P,U2,8,GND*
G04 #@! TO.N,GND*
X167530000Y-84110000D03*
G04 #@! TO.P,U2,9,QH'*
G04 #@! TO.N,Net-(U2-QH')*
X175470000Y-84110000D03*
G04 #@! TO.P,U2,10,~{SRCLR}*
G04 #@! TO.N,+6V*
X175470000Y-86650000D03*
G04 #@! TO.P,U2,11,SRCLK*
G04 #@! TO.N,Net-(U1-Q)*
X175470000Y-89190000D03*
G04 #@! TO.P,U2,12,RCLK*
G04 #@! TO.N,Net-(U2-RCLK)*
X175470000Y-91730000D03*
G04 #@! TO.P,U2,13,~{OE}*
G04 #@! TO.N,GND*
X175470000Y-94270000D03*
G04 #@! TO.P,U2,14,SER*
G04 #@! TO.N,Net-(Q1-C)*
X175470000Y-96810000D03*
G04 #@! TO.P,U2,15,QA*
G04 #@! TO.N,unconnected-(U2-QA-Pad15)*
X175470000Y-99350000D03*
G04 #@! TO.P,U2,16,VCC*
G04 #@! TO.N,+6V*
X175470000Y-101890000D03*
G04 #@! TD*
D16*
G04 #@! TO.P,D3,1,K*
G04 #@! TO.N,Net-(D3-K)*
X90960000Y-100000000D03*
D17*
G04 #@! TO.P,D3,2,A*
G04 #@! TO.N,Net-(D1-A)*
X93500000Y-100000000D03*
G04 #@! TD*
D16*
G04 #@! TO.P,D10,1,K*
G04 #@! TO.N,Net-(D10-K)*
X180225000Y-87500000D03*
D17*
G04 #@! TO.P,D10,2,A*
G04 #@! TO.N,Net-(D1-A)*
X182765000Y-87500000D03*
G04 #@! TD*
D20*
G04 #@! TO.P,R7,1*
G04 #@! TO.N,Net-(D1-A)*
X128500000Y-63000000D03*
D21*
G04 #@! TO.P,R7,2*
G04 #@! TO.N,Net-(D13-A)*
X117723693Y-73776307D03*
G04 #@! TD*
D20*
G04 #@! TO.P,R6,1*
G04 #@! TO.N,Net-(D1-A)*
X110500000Y-131620000D03*
D15*
G04 #@! TO.P,R6,2*
G04 #@! TO.N,+6V*
X110500000Y-116380000D03*
G04 #@! TD*
D16*
G04 #@! TO.P,D5,1,K*
G04 #@! TO.N,Net-(D11-K)*
X95960000Y-76000000D03*
D17*
G04 #@! TO.P,D5,2,A*
G04 #@! TO.N,Net-(D1-A)*
X98500000Y-76000000D03*
G04 #@! TD*
D16*
G04 #@! TO.P,D11,1,K*
G04 #@! TO.N,Net-(D11-K)*
X175960000Y-76000000D03*
D17*
G04 #@! TO.P,D11,2,A*
G04 #@! TO.N,Net-(D1-A)*
X178500000Y-76000000D03*
G04 #@! TD*
D22*
G04 #@! TO.P,Q1,1,C*
G04 #@! TO.N,Net-(Q1-C)*
X160500000Y-112000000D03*
D23*
G04 #@! TO.P,Q1,2,B*
G04 #@! TO.N,Net-(Q1-B)*
X159230000Y-112000000D03*
G04 #@! TO.P,Q1,3,E*
G04 #@! TO.N,GND*
X157960000Y-112000000D03*
G04 #@! TD*
D16*
G04 #@! TO.P,D9,1,K*
G04 #@! TO.N,Net-(D3-K)*
X181000000Y-99500000D03*
D17*
G04 #@! TO.P,D9,2,A*
G04 #@! TO.N,Net-(D1-A)*
X183540000Y-99500000D03*
G04 #@! TD*
D16*
G04 #@! TO.P,D6,1,K*
G04 #@! TO.N,Net-(D12-K)*
X102500000Y-67500000D03*
D17*
G04 #@! TO.P,D6,2,A*
G04 #@! TO.N,Net-(D1-A)*
X105040000Y-67500000D03*
G04 #@! TD*
D20*
G04 #@! TO.P,R1,1*
G04 #@! TO.N,+6V*
X127500000Y-119120000D03*
D15*
G04 #@! TO.P,R1,2*
G04 #@! TO.N,Net-(U1-DIS)*
X127500000Y-103880000D03*
G04 #@! TD*
D16*
G04 #@! TO.P,D12,1,K*
G04 #@! TO.N,Net-(D12-K)*
X168960000Y-66000000D03*
D17*
G04 #@! TO.P,D12,2,A*
G04 #@! TO.N,Net-(D1-A)*
X171500000Y-66000000D03*
G04 #@! TD*
D20*
G04 #@! TO.P,R3,1*
G04 #@! TO.N,Net-(Q1-B)*
X148111847Y-63111847D03*
D24*
G04 #@! TO.P,R3,2*
G04 #@! TO.N,Net-(U2-QH')*
X158888154Y-73888154D03*
G04 #@! TD*
D16*
G04 #@! TO.P,D2,1,K*
G04 #@! TO.N,Net-(D2-K)*
X93725000Y-112000000D03*
D17*
G04 #@! TO.P,D2,2,A*
G04 #@! TO.N,Net-(D1-A)*
X96265000Y-112000000D03*
G04 #@! TD*
D20*
G04 #@! TO.P,R4,1*
G04 #@! TO.N,Net-(Q1-C)*
X148500000Y-104000000D03*
D15*
G04 #@! TO.P,R4,2*
G04 #@! TO.N,+6V*
X148500000Y-119240000D03*
G04 #@! TD*
D16*
G04 #@! TO.P,D8,1,K*
G04 #@! TO.N,Net-(D2-K)*
X178460000Y-112000000D03*
D17*
G04 #@! TO.P,D8,2,A*
G04 #@! TO.N,Net-(D1-A)*
X181000000Y-112000000D03*
G04 #@! TD*
D20*
G04 #@! TO.P,R5,1*
G04 #@! TO.N,Net-(U2-RCLK)*
X165500000Y-131620000D03*
D15*
G04 #@! TO.P,R5,2*
G04 #@! TO.N,Net-(U1-Q)*
X165500000Y-116380000D03*
G04 #@! TD*
D16*
G04 #@! TO.P,D4,1,K*
G04 #@! TO.N,Net-(D10-K)*
X91960000Y-87500000D03*
D17*
G04 #@! TO.P,D4,2,A*
G04 #@! TO.N,Net-(D1-A)*
X94500000Y-87500000D03*
G04 #@! TD*
D25*
G04 #@! TO.P,C1,1*
G04 #@! TO.N,Net-(U1-THR)*
X117500000Y-111500000D03*
D26*
G04 #@! TO.P,C1,2*
G04 #@! TO.N,GND*
X116000000Y-111500000D03*
G04 #@! TD*
D27*
G04 #@! TO.P,D14,1,K*
G04 #@! TO.N,+6V*
X156500000Y-130500000D03*
D28*
G04 #@! TO.P,D14,2,A*
G04 #@! TO.N,Net-(D14-A)*
X156500000Y-140660000D03*
G04 #@! TD*
D16*
G04 #@! TO.P,D1,1,K*
G04 #@! TO.N,Net-(D1-K)*
X99225000Y-123000000D03*
D17*
G04 #@! TO.P,D1,2,A*
G04 #@! TO.N,Net-(D1-A)*
X101765000Y-123000000D03*
G04 #@! TD*
D16*
G04 #@! TO.P,D13,1,K*
G04 #@! TO.N,Net-(D13-K)*
X145960000Y-92500000D03*
D17*
G04 #@! TO.P,D13,2,A*
G04 #@! TO.N,Net-(D13-A)*
X148500000Y-92500000D03*
G04 #@! TD*
D29*
G04 #@! TO.N,GND*
X130500000Y-132000000D03*
G04 #@! TO.N,Net-(Q1-C)*
X172500000Y-108000000D03*
G04 #@! TO.N,Net-(U1-DIS)*
X130500000Y-113500000D03*
X130000000Y-106500000D03*
G04 #@! TO.N,+6V*
X118500000Y-118500000D03*
G04 #@! TO.N,Net-(D2-K)*
X184500000Y-104000000D03*
G04 #@! TO.N,Net-(D3-K)*
X184850000Y-88500000D03*
G04 #@! TO.N,Net-(D10-K)*
X180350000Y-76500000D03*
G04 #@! TO.N,Net-(D11-K)*
X176000000Y-66500000D03*
G04 #@! TO.N,Net-(D13-K)*
X160500000Y-83000000D03*
X158000000Y-83000000D03*
G04 #@! TO.N,Net-(D12-K)*
X169000000Y-61550000D03*
G04 #@! TD*
D30*
G04 #@! TO.N,GND*
X145500000Y-130000000D02*
X149500000Y-130000000D01*
X143500000Y-132000000D02*
X145500000Y-130000000D01*
X130500000Y-132000000D02*
X143500000Y-132000000D01*
X149500000Y-130000000D02*
X157960000Y-121540000D01*
X157960000Y-121540000D02*
X157960000Y-112000000D01*
X172000000Y-92500000D02*
X173770000Y-94270000D01*
X167530000Y-84110000D02*
X167530000Y-85013295D01*
X167530000Y-85013295D02*
X172000000Y-89483295D01*
X172000000Y-89483295D02*
X172000000Y-92500000D01*
X173770000Y-94270000D02*
X175470000Y-94270000D01*
G04 #@! TO.N,Net-(Q1-C)*
X168500000Y-112000000D02*
X160500000Y-112000000D01*
X160500000Y-111775000D02*
X160500000Y-112000000D01*
X172500000Y-108000000D02*
X168500000Y-112000000D01*
G04 #@! TO.N,Net-(U1-DIS)*
X130000000Y-112500000D02*
X130000000Y-106500000D01*
X130500000Y-113000000D02*
X130000000Y-112500000D01*
X130500000Y-113500000D02*
X130500000Y-113000000D01*
G04 #@! TO.N,+6V*
X112500000Y-118380000D02*
X110500000Y-116380000D01*
X177500000Y-88680000D02*
X175470000Y-86650000D01*
X118380000Y-118380000D02*
X112500000Y-118380000D01*
X118500000Y-118500000D02*
X118380000Y-118380000D01*
X175470000Y-101890000D02*
X177500000Y-99860000D01*
X177500000Y-99860000D02*
X177500000Y-88680000D01*
G04 #@! TO.N,Net-(D1-K)*
X172960000Y-122500000D02*
X173500000Y-121960000D01*
X172960000Y-119040000D02*
X174000000Y-118000000D01*
X174000000Y-118000000D02*
X174000000Y-108360000D01*
X174000000Y-108360000D02*
X167530000Y-101890000D01*
X172960000Y-122500000D02*
X172960000Y-119040000D01*
G04 #@! TO.N,Net-(D2-K)*
X178460000Y-112000000D02*
X178460000Y-110040000D01*
X167530000Y-99350000D02*
X169100000Y-100920000D01*
X178460000Y-112000000D02*
X178434315Y-112000000D01*
X178434315Y-112000000D02*
X169100000Y-102665685D01*
X184500000Y-104000000D02*
X178460000Y-110040000D01*
X169100000Y-100920000D02*
X169100000Y-102665685D01*
G04 #@! TO.N,Net-(D3-K)*
X174700000Y-107700000D02*
X176365686Y-107700000D01*
X167530000Y-96810000D02*
X169500000Y-98780000D01*
X181000000Y-103065686D02*
X181000000Y-99500000D01*
X176365686Y-107700000D02*
X181000000Y-103065686D01*
X169500000Y-98780000D02*
X169500000Y-102500000D01*
X169500000Y-102500000D02*
X174700000Y-107700000D01*
X181000000Y-99500000D02*
X181000000Y-92350000D01*
X181000000Y-92350000D02*
X184850000Y-88500000D01*
G04 #@! TO.N,Net-(D10-K)*
X169000000Y-97500000D02*
X170032843Y-98532843D01*
X170032843Y-102467157D02*
X174865686Y-107300000D01*
X174865686Y-107300000D02*
X176200000Y-107300000D01*
X180225000Y-87500000D02*
X179300000Y-88425000D01*
X176200000Y-107300000D02*
X179300000Y-104200000D01*
X180225000Y-87500000D02*
X180225000Y-76625000D01*
X169000000Y-95740000D02*
X169000000Y-97500000D01*
X180225000Y-76625000D02*
X180350000Y-76500000D01*
X167530000Y-94270000D02*
X169000000Y-95740000D01*
X179300000Y-88425000D02*
X179300000Y-104200000D01*
X170032843Y-98532843D02*
X170032843Y-102467157D01*
G04 #@! TO.N,Net-(D11-K)*
X170500000Y-98000000D02*
X170500000Y-102368628D01*
X169500000Y-97000000D02*
X170500000Y-98000000D01*
X175960000Y-66540000D02*
X176000000Y-66500000D01*
X178900000Y-80040000D02*
X175960000Y-77100000D01*
X175960000Y-76000000D02*
X175960000Y-66540000D01*
X175960000Y-77100000D02*
X175960000Y-76000000D01*
X170500000Y-102368628D02*
X175031372Y-106900000D01*
X175031372Y-106900000D02*
X176034314Y-106900000D01*
X176034314Y-106900000D02*
X178900000Y-104034314D01*
X167530000Y-91730000D02*
X169500000Y-93700000D01*
X169500000Y-93700000D02*
X169500000Y-97000000D01*
X178900000Y-104034314D02*
X178900000Y-80040000D01*
G04 #@! TO.N,Net-(D13-K)*
X158000000Y-83000000D02*
X160500000Y-83000000D01*
G04 #@! TO.N,Net-(D12-K)*
X178500000Y-103868628D02*
X178500000Y-80500000D01*
X175500000Y-79000000D02*
X168960000Y-72460000D01*
X175868628Y-106500000D02*
X178500000Y-103868628D01*
X170000000Y-91660000D02*
X170000000Y-96500000D01*
X168960000Y-61590000D02*
X169000000Y-61550000D01*
X168960000Y-72460000D02*
X168960000Y-66000000D01*
X171000000Y-102302942D02*
X175197058Y-106500000D01*
X177000000Y-79000000D02*
X175500000Y-79000000D01*
X170000000Y-96500000D02*
X171000000Y-97500000D01*
X168960000Y-66000000D02*
X168960000Y-61590000D01*
X178500000Y-80500000D02*
X177000000Y-79000000D01*
X171000000Y-97500000D02*
X171000000Y-102302942D01*
X167530000Y-89190000D02*
X170000000Y-91660000D01*
X175197058Y-106500000D02*
X175868628Y-106500000D01*
G04 #@! TD*
M02*
